<svg width="18" height="19" viewBox="0 0 18 19" fill="none" xmlns="http://www.w3.org/2000/svg">
<path opacity="0.995" fill-rule="evenodd" clip-rule="evenodd" d="M4.27149 1.95923C7.65823 1.95337 11.0449 1.95923 14.4316 1.97681C15.1179 2.08886 15.5456 2.48144 15.7148 3.15454C15.7324 6.76389 15.7383 10.3733 15.7324 13.9827C11.9824 13.9768 8.2324 13.9827 4.48242 14.0002C4.00247 14.0114 3.75638 14.2575 3.74414 14.7385C3.75047 15.1197 3.93796 15.354 4.30664 15.4417C8.11522 15.4592 11.9238 15.4651 15.7324 15.4592C15.7324 15.9749 15.7324 16.4905 15.7324 17.0061C11.9121 17.012 8.09177 17.0061 4.27149 16.9885C3.43941 16.9042 2.82417 16.4999 2.42578 15.7756C2.33994 15.5846 2.28134 15.3854 2.25 15.178C2.22656 11.3811 2.22656 7.58423 2.25 3.78735C2.38992 3.01482 2.81765 2.4699 3.5332 2.15259C3.77961 2.07053 4.02571 2.00608 4.27149 1.95923Z" fill="#6B6060"/>
</svg>
