<svg width="100" height="100" viewBox="0 0 100 100" fill="none" xmlns="http://www.w3.org/2000/svg">
<g clip-path="url(#clip0_227_9801)">
<path opacity="0.96" fill-rule="evenodd" clip-rule="evenodd" d="M9.66797 -0.0976562C11.1654 -0.0976562 12.6628 -0.0976562 14.1602 -0.0976562C21.2379 1.87084 24.5256 6.55834 24.0234 13.9648C23.6566 16.1943 22.8104 18.2126 21.4844 20.0195C18.3638 23.9541 15.2063 27.8604 12.0117 31.7383C8.50217 27.5857 5.0842 23.3539 1.75781 19.043C0.910859 17.6134 0.292369 16.116 -0.0976562 14.5508C-0.0976562 12.9232 -0.0976562 11.2956 -0.0976562 9.66797C1.26953 4.52475 4.52475 1.26953 9.66797 -0.0976562ZM10.8398 5.17578C15.4824 5.13016 18.1517 7.40881 18.8477 12.0117C18.3268 16.0482 16.0482 18.3268 12.0117 18.8477C8.79654 18.5935 6.61555 16.9659 5.46875 13.9648C4.67686 9.42506 6.46723 6.49537 10.8398 5.17578Z" fill="#D11116"/>
<path opacity="0.961" fill-rule="evenodd" clip-rule="evenodd" d="M47.7538 -0.0976562C49.186 -0.0976562 50.6184 -0.0976562 52.0506 -0.0976562C57.0696 1.04715 60.2922 4.10705 61.7186 9.08203C62.5526 12.9851 61.8364 16.5658 59.5702 19.8242C56.3786 23.8287 53.1559 27.8 49.9022 31.7383C46.6485 27.8 43.4258 23.8287 40.2342 19.8242C37.5204 15.7108 37.0647 11.3488 38.867 6.73828C40.7899 3.08809 43.7522 0.809432 47.7538 -0.0976562ZM48.7303 5.17578C53.4749 5.03957 56.1442 7.3182 56.7381 12.0117C56.2186 16.0469 53.9399 18.3255 49.9022 18.8477C45.8645 18.3255 43.5858 16.0469 43.0663 12.0117C43.351 8.37234 45.2389 6.09369 48.7303 5.17578Z" fill="#D11116"/>
<path opacity="0.96" fill-rule="evenodd" clip-rule="evenodd" d="M85.6447 -0.0976562C87.1422 -0.0976562 88.6395 -0.0976562 90.1369 -0.0976562C95.2801 1.26953 98.5354 4.52475 99.9025 9.66797C99.9025 11.2956 99.9025 12.9232 99.9025 14.5508C99.5125 16.116 98.894 17.6134 98.0471 19.043C94.7207 23.3539 91.3027 27.5857 87.7932 31.7383C84.5986 27.8604 81.441 23.9541 78.3205 20.0195C74.9609 15.0364 74.8307 9.95824 77.9299 4.78516C79.9338 2.23828 82.5053 0.61067 85.6447 -0.0976562ZM86.8166 5.17578C92.5244 5.3815 95.0309 8.31119 94.3361 13.9648C92.4758 18.1016 89.3834 19.5013 85.0588 18.1641C81.651 16.2747 80.4465 13.4427 81.4455 9.66797C82.5143 7.26125 84.3045 5.76387 86.8166 5.17578Z" fill="#D11116"/>
<path opacity="0.9" fill-rule="evenodd" clip-rule="evenodd" d="M3.22266 34.2773C4.45963 34.2773 5.69662 34.2773 6.93359 34.2773C6.96613 36.8172 6.93357 39.3562 6.83594 41.8945C5.66518 41.393 4.46074 41.2627 3.22266 41.5039C3.22266 39.0951 3.22266 36.6861 3.22266 34.2773Z" fill="#D11116"/>
<path opacity="0.902" fill-rule="evenodd" clip-rule="evenodd" d="M92.8706 34.2773C94.1075 34.2773 95.3447 34.2773 96.5816 34.2773C96.5816 36.6861 96.5816 39.0951 96.5816 41.5039C95.3415 41.2633 94.137 41.3936 92.9683 41.8945C92.8706 39.3562 92.838 36.8172 92.8706 34.2773Z" fill="#D11116"/>
<path opacity="0.963" fill-rule="evenodd" clip-rule="evenodd" d="M48.1445 37.793C49.3164 37.793 50.4883 37.793 51.6602 37.793C51.6602 40.1367 51.6602 42.4805 51.6602 44.8242C50.4883 44.8242 49.3164 44.8242 48.1445 44.8242C48.1445 42.4805 48.1445 40.1367 48.1445 37.793Z" fill="#D11116"/>
<path opacity="0.903" fill-rule="evenodd" clip-rule="evenodd" d="M10.0586 39.5508C11.2956 39.5508 12.5326 39.5508 13.7695 39.5508C13.7695 40.983 13.7695 42.4154 13.7695 43.8477C12.5241 43.5525 11.2871 43.2271 10.0586 42.8711C10.0586 41.7643 10.0586 40.6576 10.0586 39.5508Z" fill="#D11116"/>
<path opacity="0.9" fill-rule="evenodd" clip-rule="evenodd" d="M86.0352 39.5508C87.2721 39.5508 88.5092 39.5508 89.7461 39.5508C89.8104 40.6652 89.7451 41.7719 89.5508 42.8711C88.399 43.277 87.2271 43.6023 86.0352 43.8477C86.0352 42.4154 86.0352 40.983 86.0352 39.5508Z" fill="#D11116"/>
<path opacity="0.863" fill-rule="evenodd" clip-rule="evenodd" d="M41.1133 41.1133C42.3502 41.1133 43.5873 41.1133 44.8242 41.1133C44.8242 42.3502 44.8242 43.5873 44.8242 44.8242C43.5873 44.8242 42.3502 44.8242 41.1133 44.8242C41.1133 43.5873 41.1133 42.3502 41.1133 41.1133Z" fill="#D11116"/>
<path opacity="0.863" fill-rule="evenodd" clip-rule="evenodd" d="M54.9805 41.1133C56.2174 41.1133 57.4545 41.1133 58.6914 41.1133C58.6914 42.3502 58.6914 43.5873 58.6914 44.8242C57.4545 44.8242 56.2174 44.8242 54.9805 44.8242C54.9805 43.5873 54.9805 42.3502 54.9805 41.1133Z" fill="#D11116"/>
<path opacity="0.949" fill-rule="evenodd" clip-rule="evenodd" d="M4.19873 44.6289C9.37545 45.9527 14.5187 47.4176 19.6284 49.0234C19.9772 49.1768 20.2702 49.4045 20.5073 49.707C20.6046 50.3549 20.6372 51.0059 20.605 51.6602C19.0287 51.5893 17.4662 51.6869 15.9175 51.9531C15.0386 52.3111 14.4201 52.9297 14.062 53.8086C13.7761 57.7018 13.6784 61.608 13.769 65.5273C10.2534 65.5273 6.7378 65.5273 3.22217 65.5273C3.18961 58.8863 3.22217 52.2457 3.31983 45.6055C3.52002 45.1783 3.81299 44.8527 4.19873 44.6289ZM6.93311 51.6602C7.97477 51.6602 9.01645 51.6602 10.0581 51.6602C10.0581 52.767 10.0581 53.8736 10.0581 54.9805C9.01645 54.9805 7.97477 54.9805 6.93311 54.9805C6.93311 53.8736 6.93311 52.767 6.93311 51.6602ZM6.93311 58.6914C7.97477 58.6914 9.01645 58.6914 10.0581 58.6914C10.0581 59.733 10.0581 60.7748 10.0581 61.8164C9.01645 61.8164 7.97477 61.8164 6.93311 61.8164C6.93311 60.7748 6.93311 59.733 6.93311 58.6914Z" fill="#D11116"/>
<path opacity="0.949" fill-rule="evenodd" clip-rule="evenodd" d="M94.6292 44.6288C95.4862 44.52 96.1048 44.8456 96.4847 45.6054C96.5823 52.2456 96.6149 58.8863 96.5823 65.5273C93.0667 65.5273 89.5511 65.5273 86.0355 65.5273C86.1261 61.6079 86.0284 57.7017 85.7425 53.8085C85.3845 52.9296 84.7659 52.3111 83.887 51.9531C82.3384 51.6868 80.7759 51.5892 79.1995 51.6601C79.1673 51.0058 79.1999 50.3548 79.2972 49.707C79.4599 49.5443 79.6228 49.3814 79.7855 49.2187C84.7614 47.7005 89.7093 46.1706 94.6292 44.6288ZM89.7464 51.6601C90.788 51.6601 91.8298 51.6601 92.8714 51.6601C92.8714 52.7669 92.8714 53.8736 92.8714 54.9804C91.8298 54.9804 90.788 54.9804 89.7464 54.9804C89.7464 53.8736 89.7464 52.7669 89.7464 51.6601ZM89.7464 58.6913C90.788 58.6913 91.8298 58.6913 92.8714 58.6913C92.8714 59.7329 92.8714 60.7747 92.8714 61.8163C91.8298 61.8163 90.788 61.8163 89.7464 61.8163C89.7464 60.7747 89.7464 59.7329 89.7464 58.6913Z" fill="#D11116"/>
<path opacity="0.963" fill-rule="evenodd" clip-rule="evenodd" d="M37.793 48.1445C45.8658 48.1445 53.9389 48.1445 62.0117 48.1445C62.0117 53.9389 62.0117 59.733 62.0117 65.5273C53.9389 65.5273 45.8658 65.5273 37.793 65.5273C37.793 59.733 37.793 53.9389 37.793 48.1445ZM41.3086 51.6602C42.4154 51.6602 43.5221 51.6602 44.6289 51.6602C44.6289 52.767 44.6289 53.8736 44.6289 54.9805C43.5221 54.9805 42.4154 54.9805 41.3086 54.9805C41.3086 53.8736 41.3086 52.767 41.3086 51.6602ZM48.3398 51.6602C49.3814 51.6602 50.4232 51.6602 51.4648 51.6602C51.4648 52.767 51.4648 53.8736 51.4648 54.9805C50.4232 54.9805 49.3814 54.9805 48.3398 54.9805C48.3398 53.8736 48.3398 52.767 48.3398 51.6602ZM55.1758 51.6602C56.2826 51.6602 57.3893 51.6602 58.4961 51.6602C58.4961 52.767 58.4961 53.8736 58.4961 54.9805C57.3893 54.9805 56.2826 54.9805 55.1758 54.9805C55.1758 53.8736 55.1758 52.767 55.1758 51.6602ZM41.3086 58.6914C42.4154 58.6914 43.5221 58.6914 44.6289 58.6914C44.6289 59.733 44.6289 60.7748 44.6289 61.8164C43.5221 61.8164 42.4154 61.8164 41.3086 61.8164C41.3086 60.7748 41.3086 59.733 41.3086 58.6914ZM48.3398 58.6914C49.3814 58.6914 50.4232 58.6914 51.4648 58.6914C51.4648 59.733 51.4648 60.7748 51.4648 61.8164C50.4232 61.8164 49.3814 61.8164 48.3398 61.8164C48.3398 60.7748 48.3398 59.733 48.3398 58.6914ZM55.1758 58.6914C56.2826 58.6914 57.3893 58.6914 58.4961 58.6914C58.4961 59.733 58.4961 60.7748 58.4961 61.8164C57.3893 61.8164 56.2826 61.8164 55.1758 61.8164C55.1758 60.7748 55.1758 59.733 55.1758 58.6914Z" fill="#D11116"/>
<path opacity="0.947" fill-rule="evenodd" clip-rule="evenodd" d="M17.0898 54.9805C22.8842 54.9805 28.6783 54.9805 34.4727 54.9805C34.4727 58.4961 34.4727 62.0117 34.4727 65.5273C28.6783 65.5273 22.8842 65.5273 17.0898 65.5273C17.0898 62.0117 17.0898 58.4961 17.0898 54.9805ZM20.6055 58.6914C21.7123 58.6914 22.8189 58.6914 23.9258 58.6914C23.9258 59.733 23.9258 60.7748 23.9258 61.8164C22.8189 61.8164 21.7123 61.8164 20.6055 61.8164C20.6055 60.7748 20.6055 59.733 20.6055 58.6914ZM27.6367 58.6914C28.6783 58.6914 29.7201 58.6914 30.7617 58.6914C30.7617 59.733 30.7617 60.7748 30.7617 61.8164C29.7201 61.8164 28.6783 61.8164 27.6367 61.8164C27.6367 60.7748 27.6367 59.733 27.6367 58.6914Z" fill="#D11116"/>
<path opacity="0.947" fill-rule="evenodd" clip-rule="evenodd" d="M65.332 54.9805C71.1264 54.9805 76.9205 54.9805 82.7148 54.9805C82.7148 58.4961 82.7148 62.0117 82.7148 65.5273C76.9205 65.5273 71.1264 65.5273 65.332 65.5273C65.332 62.0117 65.332 58.4961 65.332 54.9805ZM69.043 58.6914C70.0846 58.6914 71.1264 58.6914 72.168 58.6914C72.168 59.733 72.168 60.7748 72.168 61.8164C71.1264 61.8164 70.0846 61.8164 69.043 61.8164C69.043 60.7748 69.043 59.733 69.043 58.6914ZM75.8789 58.6914C76.9857 58.6914 78.0924 58.6914 79.1992 58.6914C79.1992 59.733 79.1992 60.7748 79.1992 61.8164C78.0924 61.8164 76.9857 61.8164 75.8789 61.8164C75.8789 60.7748 75.8789 59.733 75.8789 58.6914Z" fill="#D11116"/>
<path opacity="0.965" fill-rule="evenodd" clip-rule="evenodd" d="M-0.0976562 70.605C-0.0976562 70.1493 -0.0976562 69.6935 -0.0976562 69.2378C0.0564707 69.1825 0.186679 69.0849 0.292969 68.9449C10.5141 68.8472 20.7355 68.8146 30.957 68.8472C30.9895 69.696 30.9568 70.5423 30.8594 71.3863C30.6967 71.8095 30.4037 72.1025 29.9805 72.2652C26.0742 72.3302 22.168 72.3954 18.2617 72.4605C15.2201 73.1706 13.7553 75.0911 13.8672 78.2222C14.3143 80.3622 15.5838 81.762 17.6758 82.4214C25.3047 82.4249 32.9219 82.555 40.5273 82.812C41.5689 83.8536 41.5689 84.8954 40.5273 85.937C38.724 86.187 36.9012 86.3173 35.0586 86.3277C32.5666 87.0407 31.1994 88.7009 30.957 91.3081C31.6143 94.7308 33.6975 96.5212 37.207 96.6792C37.8613 97.2411 38.0566 97.9247 37.793 98.73C21.0943 94.7517 8.46418 85.3767 -0.0976562 70.605Z" fill="#D11116"/>
<path opacity="0.972" fill-rule="evenodd" clip-rule="evenodd" d="M54.3945 99.9023C51.3998 99.9023 48.4049 99.9023 45.4101 99.9023C44.0086 99.6779 42.5764 99.4826 41.1133 99.3164C41.4023 96.7365 40.4258 94.816 38.1836 93.5547C37.1463 93.2582 36.1045 92.9977 35.0586 92.7734C33.9867 91.6547 34.0519 90.6129 35.2539 89.6484C37.1502 89.6141 39.0383 89.484 40.918 89.2578C44.4668 87.659 45.4107 85.0873 43.75 81.543C43.0201 80.5512 42.0762 79.8676 40.918 79.4922C33.4961 79.4271 26.0742 79.3619 18.6523 79.2969C17.2802 78.9301 16.7919 78.0512 17.1875 76.6602C17.4272 76.2254 17.7853 75.9324 18.2617 75.7812C22.168 75.7162 26.0742 75.651 29.9805 75.5859C33.326 74.6078 34.7582 72.3617 34.2773 68.8477C42.4154 68.8477 50.5533 68.8477 58.6914 68.8477C58.199 72.2617 59.5662 74.5078 62.793 75.5859C69.043 75.651 75.293 75.7162 81.543 75.7812C82.7367 76.4154 83.0297 77.3594 82.4219 78.6133C82.0703 78.9682 81.6473 79.1961 81.1523 79.2969C76.9732 79.3033 72.8064 79.4336 68.6523 79.6875C66.5084 80.815 65.4342 82.6055 65.4297 85.0586C65.2764 85.4074 65.0486 85.7004 64.7461 85.9375C61.7644 86.1887 58.7697 86.3189 55.7617 86.3281C53.2976 87.0197 51.9305 88.6473 51.6601 91.2109C51.8541 93.552 53.026 95.1795 55.1758 96.0938C57.6484 95.8006 58.8203 96.8748 58.6914 99.3164C57.2322 99.5129 55.7998 99.7082 54.3945 99.9023Z" fill="#D11116"/>
<path opacity="0.971" fill-rule="evenodd" clip-rule="evenodd" d="M99.9024 69.2378C99.9024 69.6935 99.9024 70.1493 99.9024 70.605C91.3405 85.3767 78.7104 94.7517 62.0118 98.73C61.7036 95.1341 59.7504 93.2136 56.1524 92.9683C54.8428 92.1421 54.6475 91.1005 55.5664 89.8433C58.7452 89.6316 61.9352 89.4363 65.1368 89.2574C67.6504 88.1732 68.92 86.2527 68.9454 83.4956C69.2467 83.1288 69.6047 82.8359 70.0196 82.6167C74.2637 82.6103 78.4955 82.4802 82.7149 82.2261C85.4307 80.9286 86.4397 78.8128 85.7422 75.8784C85.1889 74.2833 84.1147 73.2091 82.5196 72.6558C76.0168 72.4023 69.5065 72.272 62.9883 72.2652C62.6395 72.1118 62.3465 71.8841 62.1094 71.5816C61.8538 70.6898 61.7561 69.7783 61.8164 68.8472C74.3817 68.8146 86.9469 68.8472 99.5118 68.9449C99.618 69.0849 99.7483 69.1825 99.9024 69.2378Z" fill="#D11116"/>
</g>
<defs>
<clipPath id="clip0_227_9801">
<rect width="100" height="100" fill="white"/>
</clipPath>
</defs>
</svg>
