<svg width="21" height="20" viewBox="0 0 21 20" fill="none" xmlns="http://www.w3.org/2000/svg">
<path opacity="0.986" fill-rule="evenodd" clip-rule="evenodd" d="M6.80664 0.605039C7.21086 0.517379 7.49082 0.660609 7.64649 1.03473C7.67254 2.27171 7.67254 3.50868 7.64649 4.74566C7.62152 4.8477 7.57594 4.93887 7.50977 5.0191C7.84445 5.25301 8.13742 5.2009 8.38867 4.86285C8.40168 4.82379 8.41473 4.78473 8.42774 4.74566C8.4841 3.9141 8.50363 3.08077 8.48633 2.24566C10.0098 2.24566 11.5332 2.24566 13.0566 2.24566C13.0502 1.84181 13.0566 1.43816 13.0762 1.03473C13.2304 0.654918 13.5103 0.518199 13.916 0.62457C14.1214 0.712707 14.2581 0.862445 14.3262 1.07379C14.3522 2.28473 14.3522 3.49566 14.3262 4.7066C14.293 4.83152 14.2345 4.94219 14.1504 5.03863C14.5925 5.27754 14.9115 5.16687 15.1074 4.7066C15.127 3.88639 15.1335 3.06608 15.127 2.24566C15.6754 2.23138 16.2223 2.25091 16.7676 2.30426C18.2455 2.66242 19.0984 3.59341 19.3262 5.09723C19.3522 8.8993 19.3522 12.7014 19.3262 16.5035C19.1074 18.0633 18.2285 19.0073 16.6895 19.3355C12.4707 19.3616 8.25195 19.3616 4.0332 19.3355C2.49398 19.0072 1.61508 18.0632 1.39649 16.5035C1.37044 12.7014 1.37044 8.8993 1.39649 5.09723C1.5476 3.87875 2.17911 3.01286 3.29102 2.49957C3.5909 2.37252 3.9034 2.29439 4.22852 2.2652C4.94453 2.24567 5.6607 2.23916 6.37695 2.24566C6.37047 1.85482 6.37695 1.4642 6.39649 1.07379C6.47317 0.860652 6.60988 0.704402 6.80664 0.605039ZM2.66602 8.10504C7.79621 8.10504 12.9264 8.10504 18.0566 8.10504C18.0632 10.8785 18.0566 13.652 18.0371 16.4254C17.9033 17.2852 17.415 17.8255 16.5723 18.0464C14.5028 18.0912 12.4325 18.1108 10.3613 18.105C8.2902 18.1108 6.21988 18.0912 4.15039 18.0464C3.30809 17.8271 2.81981 17.2867 2.68555 16.4254C2.66602 13.652 2.6595 10.8785 2.66602 8.10504Z" fill="#6B6060"/>
<path opacity="0.946" fill-rule="evenodd" clip-rule="evenodd" d="M6.88423 10.3711C7.61873 10.3961 7.93775 10.7737 7.84126 11.5039C7.53173 12.0888 7.08251 12.2255 6.49361 11.9141C6.16677 11.5948 6.09513 11.2237 6.27876 10.8008C6.42509 10.575 6.62693 10.4318 6.88423 10.3711Z" fill="#6B6060"/>
<path opacity="0.941" fill-rule="evenodd" clip-rule="evenodd" d="M10.2047 10.3715C10.9005 10.3576 11.2326 10.6962 11.2008 11.3871C11.0214 11.962 10.6373 12.1768 10.0485 12.0317C9.5831 11.7972 9.42033 11.4261 9.56021 10.9184C9.68845 10.6303 9.90329 10.4479 10.2047 10.3715Z" fill="#6B6060"/>
<path opacity="0.946" fill-rule="evenodd" clip-rule="evenodd" d="M13.526 10.3711C14.2624 10.3716 14.5944 10.7362 14.5221 11.4648C14.2781 12.0196 13.868 12.1954 13.2917 11.9922C12.8342 11.6566 12.7366 11.2335 12.9987 10.7227C13.1361 10.5405 13.3119 10.4234 13.526 10.3711Z" fill="#6B6060"/>
<path opacity="0.949" fill-rule="evenodd" clip-rule="evenodd" d="M6.7685 13.73C7.69518 13.6997 8.02721 14.1294 7.76459 15.0191C7.42658 15.4337 7.01643 15.5183 6.53412 15.273C6.1124 14.8657 6.07334 14.423 6.41694 13.9449C6.52487 13.8521 6.64205 13.7805 6.7685 13.73Z" fill="#6B6060"/>
<path opacity="0.946" fill-rule="evenodd" clip-rule="evenodd" d="M10.0879 13.7301C10.7407 13.6327 11.1183 13.9061 11.2207 14.5504C11.1795 15.0865 10.893 15.373 10.3613 15.4098C9.82969 15.373 9.5432 15.0865 9.50195 14.5504C9.53195 14.1563 9.72727 13.8828 10.0879 13.7301Z" fill="#6B6060"/>
<path opacity="0.949" fill-rule="evenodd" clip-rule="evenodd" d="M13.4083 13.7302C14.2765 13.6578 14.6345 14.0484 14.4825 14.902C14.2371 15.3572 13.866 15.507 13.3692 15.3513C12.9218 15.1309 12.7591 14.7728 12.8809 14.277C12.9859 14.0224 13.1617 13.8401 13.4083 13.7302Z" fill="#6B6060"/>
</svg>
