<svg width="100" height="100" viewBox="0 0 100 100" fill="none" xmlns="http://www.w3.org/2000/svg">
<rect width="100" height="100" rx="50" fill="#D11116"/>
<g clip-path="url(#clip0_425_2014)">
<path opacity="0.985" fill-rule="evenodd" clip-rule="evenodd" d="M48.3976 29.9609C49.4392 29.9609 50.4809 29.9609 51.5226 29.9609C57.0187 30.7483 61.0682 33.5869 63.671 38.4766C64.8811 41.049 65.4019 43.7573 65.2335 46.6016C66.3062 47.0233 67.0354 47.7785 67.421 48.8672C67.5486 51.0509 67.5746 53.2384 67.4991 55.4297C67.1861 56.68 66.431 57.5394 65.2335 58.0078C65.2291 59.7038 65.177 61.3966 65.0772 63.0859C64.3797 65.5545 62.7781 67.0519 60.2725 67.5781C57.9548 67.6041 55.6372 67.6302 53.3194 67.6562C52.8374 68.8548 51.978 69.623 50.7413 69.9609C50.2204 69.9609 49.6997 69.9609 49.1788 69.9609C46.9772 69.1998 46.1048 67.6634 46.5616 65.3516C47.3272 63.4773 48.7204 62.6831 50.7413 62.9688C51.991 63.281 52.8504 64.0362 53.3194 65.2344C55.3247 65.2865 57.3298 65.2865 59.335 65.2344C61.4644 65.006 62.6233 63.8211 62.8116 61.6797C62.8507 60.5081 62.8637 59.3363 62.8507 58.1641C62.0694 58.1641 61.2882 58.1641 60.5069 58.1641C60.5069 58.9453 60.5069 59.7266 60.5069 60.5078C59.7257 60.5078 58.9444 60.5078 58.1632 60.5078C58.1632 55.0391 58.1632 49.5703 58.1632 44.1016C58.9444 44.1016 59.7257 44.1016 60.5069 44.1016C60.5069 44.8828 60.5069 45.6641 60.5069 46.4453C61.2882 46.4453 62.0694 46.4453 62.8507 46.4453C62.9764 40.4717 60.3983 36.1358 55.1163 33.4375C50.6188 31.6141 46.374 32.0829 42.3819 34.8438C38.6805 37.8034 36.9097 41.6706 37.0694 46.4453C37.8507 46.4453 38.6319 46.4453 39.4132 46.4453C39.4132 45.6641 39.4132 44.8828 39.4132 44.1016C40.1944 44.1016 40.9757 44.1016 41.7569 44.1016C41.7569 49.5703 41.7569 55.0391 41.7569 60.5078C40.9757 60.5078 40.1944 60.5078 39.4132 60.5078C39.4132 59.7266 39.4132 58.9453 39.4132 58.1641C37.9807 58.1771 36.5484 58.1641 35.1163 58.125C33.6963 57.7467 32.7979 56.8483 32.421 55.4297C32.3455 53.2384 32.3716 51.0509 32.4991 48.8672C32.8847 47.7785 33.6139 47.0233 34.6866 46.6016C34.4434 41.3628 36.2533 37.0008 40.1163 33.5156C42.5351 31.5381 45.2955 30.3532 48.3976 29.9609Z" fill="white"/>
</g>
<defs>
<clipPath id="clip0_425_2014">
<rect width="40" height="40" fill="white" transform="translate(30 30)"/>
</clipPath>
</defs>
</svg>
