<svg width="31" height="30" viewBox="0 0 31 30" fill="none" xmlns="http://www.w3.org/2000/svg">
<path opacity="0.975" fill-rule="evenodd" clip-rule="evenodd" d="M12.0708 9.40406C13.1452 9.39428 14.2195 9.40406 15.2935 9.43336C16.1414 9.46781 16.9812 9.56549 17.813 9.72633C18.0608 9.79166 18.2952 9.88928 18.5161 10.0193C19.7271 10.7615 20.938 11.5037 22.1489 12.2459C24.2933 12.3903 26.4027 12.7419 28.4771 13.3005C29.1377 13.6155 29.5381 14.1331 29.6782 14.8533C29.7173 15.7908 29.7173 16.7283 29.6782 17.6658C29.5762 18.0755 29.3516 18.3977 29.0044 18.6326C28.94 18.6579 28.9009 18.6286 28.8872 18.5447C29.0831 16.6218 28.3214 15.2252 26.6021 14.3552C24.4335 13.6391 22.7635 14.2543 21.5923 16.2009C21.2036 17.0305 21.1157 17.8899 21.3286 18.7791C17.6567 18.7791 13.9849 18.7791 10.313 18.7791C10.6077 16.8391 9.90455 15.3841 8.20363 14.4138C6.2824 13.6661 4.67105 14.086 3.36965 15.6736C2.82273 16.5138 2.57859 17.4318 2.63723 18.4275C1.56931 18.2668 1.0322 17.6418 1.0259 16.5525C0.91342 15.3376 1.16733 14.2047 1.78762 13.1541C1.89504 13.0467 2.00246 12.9392 2.10988 12.8318C2.92155 12.5352 3.74186 12.2617 4.57082 12.0115C6.09967 10.8372 7.81844 10.0755 9.72707 9.72633C10.5132 9.59039 11.2945 9.48293 12.0708 9.40406ZM11.895 10.5759C12.3247 10.5759 12.7544 10.5759 13.1841 10.5759C13.3958 11.4325 13.6302 12.2821 13.8872 13.1248C13.3013 13.1345 12.7154 13.1443 12.1294 13.1541C11.4809 13.1619 10.8364 13.1326 10.1958 13.0662C9.65482 12.4765 9.14699 11.8613 8.67238 11.2205C9.72977 10.885 10.804 10.6701 11.895 10.5759ZM14.5318 10.6345C15.2545 10.6778 15.9771 10.7266 16.6997 10.781C17.0034 10.7887 17.2963 10.8473 17.5786 10.9568C18.5942 11.5818 19.6099 12.2068 20.6255 12.8318C20.4888 12.9295 20.3521 13.0271 20.2154 13.1248C18.5358 13.1541 16.8561 13.1638 15.1763 13.1541C14.9522 12.3163 14.7374 11.4765 14.5318 10.6345Z" fill="#6B6060"/>
<path opacity="0.974" fill-rule="evenodd" clip-rule="evenodd" d="M5.97682 15.146C7.56507 14.9873 8.62954 15.6513 9.17018 17.1382C9.43637 18.3924 9.05552 19.3982 8.02761 20.1558C6.65118 20.8655 5.43048 20.6604 4.3655 19.5405C3.66955 18.4944 3.63049 17.4202 4.24831 16.3179C4.68567 15.7141 5.26184 15.3235 5.97682 15.146Z" fill="#6B6060"/>
<path opacity="0.975" fill-rule="evenodd" clip-rule="evenodd" d="M24.551 15.1461C26.2167 14.968 27.3007 15.6711 27.803 17.2555C28.0103 18.9009 27.3365 19.9849 25.7815 20.5075C24.1114 20.75 23.0079 20.0762 22.4709 18.486C22.2462 16.7892 22.9396 15.6759 24.551 15.1461Z" fill="#6B6060"/>
</svg>
