<svg width="50" height="50" viewBox="0 0 50 50" fill="none" xmlns="http://www.w3.org/2000/svg">
<path opacity="0.977" fill-rule="evenodd" clip-rule="evenodd" d="M16.748 3.95509C20.2381 3.94948 22.7934 5.47943 24.4141 8.54494C25.3589 10.7088 25.4892 12.9223 24.8047 15.1856C24.2944 16.7919 23.6759 18.3544 22.9492 19.8731C21.4285 22.8183 19.7358 25.6503 17.8711 28.3692C17.5259 28.6252 17.1841 28.6252 16.8457 28.3692C14.8176 25.4541 13.0109 22.3942 11.4258 19.1895C10.326 17.0199 9.65863 14.725 9.42383 12.3047C9.60238 8.36211 11.5229 5.69284 15.1855 4.29689C15.7134 4.15078 16.2343 4.03685 16.748 3.95509ZM17.2363 8.15431C19.0955 8.27186 20.3162 9.21586 20.8984 10.9863C21.2265 12.9181 20.5266 14.3341 18.7988 15.2344C16.5069 15.952 14.8631 15.2195 13.8672 13.0371C13.4218 10.3119 14.5448 8.68435 17.2363 8.15431Z" fill="white"/>
<path opacity="0.951" fill-rule="evenodd" clip-rule="evenodd" d="M16.6503 9.71647C18.8067 9.54503 19.7344 10.5216 19.4335 12.6462C18.7651 13.9327 17.7397 14.3396 16.3573 13.8669C15.123 13.0347 14.8462 11.9442 15.5273 10.5954C15.836 10.2039 16.2103 9.9109 16.6503 9.71647Z" fill="white"/>
<path opacity="0.991" fill-rule="evenodd" clip-rule="evenodd" d="M5.12696 20.2641C6.88597 20.2316 8.64378 20.2641 10.4004 20.3618C11.9206 23.4367 13.6621 26.3664 15.625 29.1509C16.4409 30.0935 17.4012 30.2726 18.5059 29.688C18.7714 29.532 18.983 29.3205 19.1406 29.0532C21.0419 26.2449 22.7834 23.3314 24.3652 20.313C26.0905 20.2478 27.8157 20.2478 29.541 20.313C29.8848 20.3622 30.1289 20.5412 30.2734 20.8501C30.3223 28.1417 30.3386 35.4334 30.3223 42.7251C25.6672 42.7414 21.0123 42.7251 16.3574 42.6763C16.1557 40.4826 15.0164 39.0178 12.9395 38.2817C10.0205 37.7961 8.08362 38.9516 7.12891 41.7485C7.10823 42.0667 7.05941 42.3759 6.98242 42.6763C6.26628 42.7414 5.55013 42.7414 4.83399 42.6763C4.61659 42.5564 4.47011 42.3773 4.39453 42.1391C4.32943 35.0428 4.32943 27.9465 4.39453 20.8501C4.56127 20.5483 4.80541 20.353 5.12696 20.2641Z" fill="white"/>
<path opacity="0.964" fill-rule="evenodd" clip-rule="evenodd" d="M31.7871 25.635C33.7405 25.6187 35.6937 25.635 37.6465 25.6839C37.817 25.7298 37.9798 25.795 38.1348 25.8792C38.9522 26.7291 39.7335 27.608 40.4785 28.5159C39.3718 28.5484 38.2649 28.581 37.1582 28.6135C36.5308 28.7529 36.1238 29.1272 35.9375 29.7366C35.8724 30.941 35.8724 32.1455 35.9375 33.3499C36.1253 33.9574 36.5322 34.3317 37.1582 34.4729C39.9575 34.5217 42.7569 34.538 45.5566 34.5217C45.5729 37.061 45.5566 39.6001 45.5078 42.1389C45.4322 42.3771 45.2857 42.5562 45.0684 42.676C44.3522 42.7412 43.636 42.7412 42.9199 42.676C42.7182 40.4824 41.5789 39.0175 39.502 38.2815C36.583 37.7959 34.6461 38.9514 33.6914 41.7483C33.6707 42.0665 33.6219 42.3756 33.5449 42.676C32.9599 42.7248 32.3739 42.7411 31.7871 42.7249C31.7871 37.0283 31.7871 31.3316 31.7871 25.635Z" fill="white"/>
<path opacity="0.945" fill-rule="evenodd" clip-rule="evenodd" d="M37.3535 30.0296C38.8838 30.0132 40.4138 30.0296 41.9434 30.0784C42.7716 31.0532 43.6179 32.0134 44.4824 32.9592C42.107 33.0569 39.7307 33.0894 37.3535 33.0569C37.3535 32.0478 37.3535 31.0386 37.3535 30.0296Z" fill="white"/>
<path opacity="0.963" fill-rule="evenodd" clip-rule="evenodd" d="M10.8888 39.6002C12.6341 39.3413 13.8873 39.9924 14.6486 41.5533C15.1022 42.9684 14.793 44.1891 13.7209 45.2154C12.0891 46.2871 10.5755 46.1406 9.17985 44.7759C8.16312 43.2096 8.27705 41.7285 9.52165 40.3326C9.94304 40.0082 10.3988 39.764 10.8888 39.6002Z" fill="white"/>
<path opacity="0.963" fill-rule="evenodd" clip-rule="evenodd" d="M37.4513 39.6002C39.1965 39.3413 40.4498 39.9924 41.2111 41.5533C41.6647 42.9684 41.3555 44.1891 40.2834 45.2154C38.6516 46.2871 37.138 46.1406 35.7423 44.7759C34.7256 43.2096 34.8395 41.7285 36.0841 40.3326C36.5055 40.0082 36.9613 39.764 37.4513 39.6002Z" fill="white"/>
</svg>
