<svg width="50" height="50" viewBox="0 0 50 50" fill="none" xmlns="http://www.w3.org/2000/svg">
<path opacity="0.977" fill-rule="evenodd" clip-rule="evenodd" d="M16.748 3.95509C20.2381 3.94948 22.7934 5.47943 24.4141 8.54494C25.3589 10.7088 25.4892 12.9223 24.8047 15.1856C24.2944 16.7919 23.6759 18.3544 22.9492 19.8731C21.4285 22.8183 19.7358 25.6503 17.8711 28.3692C17.5259 28.6252 17.1841 28.6252 16.8457 28.3692C14.8176 25.4541 13.0109 22.3942 11.4258 19.1895C10.326 17.0199 9.65863 14.725 9.42383 12.3047C9.60238 8.36211 11.5229 5.69284 15.1855 4.29689C15.7134 4.15078 16.2343 4.03685 16.748 3.95509ZM17.2363 8.15431C19.0955 8.27186 20.3162 9.21586 20.8984 10.9863C21.2265 12.9181 20.5266 14.3341 18.7988 15.2344C16.5069 15.952 14.8631 15.2195 13.8672 13.0371C13.4218 10.3119 14.5448 8.68435 17.2363 8.15431Z" fill="#7D7D7D"/>
<path opacity="0.951" fill-rule="evenodd" clip-rule="evenodd" d="M16.6503 9.71695C18.8067 9.54552 19.7344 10.5221 19.4335 12.6466C18.7651 13.9332 17.7397 14.3401 16.3573 13.8673C15.123 13.0352 14.8462 11.9447 15.5273 10.5959C15.836 10.2044 16.2103 9.91139 16.6503 9.71695Z" fill="#7D7D7D"/>
<path opacity="0.991" fill-rule="evenodd" clip-rule="evenodd" d="M5.12696 20.2637C6.88597 20.2311 8.64378 20.2637 10.4004 20.3613C11.9206 23.4362 13.6621 26.3659 15.625 29.1504C16.4409 30.0931 17.4012 30.2722 18.5059 29.6875C18.7714 29.5315 18.983 29.32 19.1406 29.0527C21.0419 26.2444 22.7834 23.3309 24.3652 20.3125C26.0905 20.2473 27.8157 20.2473 29.541 20.3125C29.8848 20.3617 30.1289 20.5407 30.2734 20.8496C30.3223 28.1412 30.3386 35.4329 30.3223 42.7246C25.6672 42.7409 21.0123 42.7246 16.3574 42.6758C16.1557 40.4821 15.0164 39.0173 12.9395 38.2812C10.0205 37.7956 8.08362 38.9512 7.12891 41.748C7.10823 42.0662 7.05941 42.3754 6.98242 42.6758C6.26628 42.7409 5.55013 42.7409 4.83399 42.6758C4.61659 42.5559 4.47011 42.3768 4.39453 42.1387C4.32943 35.0423 4.32943 27.946 4.39453 20.8496C4.56127 20.5478 4.80541 20.3525 5.12696 20.2637Z" fill="#7D7D7D"/>
<path opacity="0.964" fill-rule="evenodd" clip-rule="evenodd" d="M31.7871 25.6345C33.7405 25.6182 35.6937 25.6345 37.6465 25.6834C37.817 25.7294 37.9798 25.7945 38.1348 25.8787C38.9522 26.7286 39.7335 27.6075 40.4785 28.5154C39.3718 28.5479 38.2649 28.5805 37.1582 28.6131C36.5308 28.7524 36.1238 29.1267 35.9375 29.7361C35.8724 30.9405 35.8724 32.145 35.9375 33.3494C36.1253 33.9569 36.5322 34.3312 37.1582 34.4724C39.9575 34.5213 42.7569 34.5376 45.5566 34.5213C45.5729 37.0605 45.5566 39.5996 45.5078 42.1384C45.4322 42.3766 45.2857 42.5557 45.0684 42.6755C44.3522 42.7407 43.636 42.7407 42.9199 42.6755C42.7182 40.4819 41.5789 39.0171 39.502 38.281C36.583 37.7954 34.6461 38.9509 33.6914 41.7478C33.6707 42.066 33.6219 42.3752 33.5449 42.6755C32.9599 42.7243 32.3739 42.7406 31.7871 42.7244C31.7871 37.0278 31.7871 31.3311 31.7871 25.6345Z" fill="#7D7D7D"/>
<path opacity="0.945" fill-rule="evenodd" clip-rule="evenodd" d="M37.3535 30.0291C38.8838 30.0128 40.4138 30.0291 41.9434 30.0779C42.7716 31.0527 43.6179 32.013 44.4824 32.9588C42.107 33.0564 39.7307 33.0889 37.3535 33.0564C37.3535 32.0473 37.3535 31.0381 37.3535 30.0291Z" fill="#7D7D7D"/>
<path opacity="0.963" fill-rule="evenodd" clip-rule="evenodd" d="M10.8888 39.6002C12.6341 39.3413 13.8873 39.9924 14.6486 41.5533C15.1022 42.9684 14.793 44.1891 13.7209 45.2154C12.0891 46.2871 10.5755 46.1406 9.17985 44.7759C8.16312 43.2096 8.27705 41.7285 9.52165 40.3326C9.94304 40.0082 10.3988 39.764 10.8888 39.6002Z" fill="#7D7D7D"/>
<path opacity="0.963" fill-rule="evenodd" clip-rule="evenodd" d="M37.4513 39.6002C39.1965 39.3413 40.4498 39.9924 41.2111 41.5533C41.6647 42.9684 41.3555 44.1891 40.2834 45.2154C38.6516 46.2871 37.138 46.1406 35.7423 44.7759C34.7256 43.2096 34.8395 41.7285 36.0841 40.3326C36.5055 40.0082 36.9613 39.764 37.4513 39.6002Z" fill="#7D7D7D"/>
</svg>
