<svg width="70" height="70" viewBox="0 0 70 70" fill="none" xmlns="http://www.w3.org/2000/svg">
<path opacity="0.994" fill-rule="evenodd" clip-rule="evenodd" d="M6.63086 16.2009C18.5255 16.1781 30.4201 16.2009 42.3145 16.2693C43.5641 16.6075 44.3617 17.405 44.707 18.6619C44.7982 27.8676 44.7982 37.0734 44.707 46.2791C44.5475 46.4386 44.3881 46.598 44.2285 46.7576C37.9395 46.8488 31.6504 46.8488 25.3613 46.7576C24.3686 42.8999 21.8848 40.8265 17.9102 40.5369C14.6033 40.7086 12.2792 42.3036 10.9375 45.322C10.7585 45.8101 10.6445 46.3115 10.5957 46.8259C9.12668 46.8846 7.66835 46.8162 6.22071 46.6209C5.27725 46.2698 4.66202 45.6089 4.375 44.6384C4.28385 35.8884 4.28385 27.1384 4.375 18.3884C4.80012 17.3028 5.55207 16.5735 6.63086 16.2009Z" fill="#D11116"/>
<path opacity="0.969" fill-rule="evenodd" clip-rule="evenodd" d="M46.8266 20.4392C49.5158 20.4164 52.2046 20.4392 54.893 20.5076C55.9104 20.6857 56.7535 21.1642 57.4223 21.9431C58.1238 23.05 58.8758 24.1209 59.6782 25.156C57.354 25.2016 55.0298 25.2472 52.7055 25.2927C51.1788 25.5433 50.2901 26.432 50.0395 27.9588C49.9483 29.7816 49.9483 31.6046 50.0395 33.4275C50.3242 34.7602 51.1218 35.6034 52.4321 35.9568C56.8068 36.0252 61.1818 36.048 65.5571 36.0252C65.5799 38.5777 65.5571 41.1297 65.4888 43.6814C64.5988 46.0743 62.8899 47.1225 60.3618 46.8259C59.2222 42.4754 56.3967 40.4019 51.8852 40.6052C49.8503 40.8701 48.2097 41.8044 46.9634 43.408C46.8266 35.7523 46.7811 28.096 46.8266 20.4392Z" fill="#D11116"/>
<path opacity="0.964" fill-rule="evenodd" clip-rule="evenodd" d="M52.5684 27.1384C55.3942 27.1156 58.2198 27.1384 61.045 27.2068C62.4063 29.1317 63.7506 31.0686 65.0782 33.0174C65.2383 33.407 65.3978 33.7945 65.5567 34.1795C61.1733 34.3132 56.7983 34.2675 52.4317 34.0427C52.2721 33.8832 52.1127 33.7238 51.9532 33.5642C51.862 31.6502 51.862 29.7361 51.9532 27.822C52.0933 27.523 52.2984 27.2951 52.5684 27.1384Z" fill="#D11116"/>
<path opacity="0.953" fill-rule="evenodd" clip-rule="evenodd" d="M17.4314 42.3145C20.8514 42.34 22.8794 44.0263 23.5154 47.373C23.3892 52.0557 20.9966 54.0837 16.3377 53.457C14.1929 52.8618 12.8941 51.4717 12.4412 49.2871C11.9671 45.3973 13.6305 43.0731 17.4314 42.3145ZM17.7048 45.7324C19.1128 45.8415 19.9331 46.5935 20.1658 47.9883C19.8247 49.7915 18.7764 50.4751 17.0212 50.0391C15.6289 49.039 15.4238 47.8313 16.406 46.416C16.8035 46.0923 17.2364 45.8644 17.7048 45.7324Z" fill="#D11116"/>
<path opacity="0.954" fill-rule="evenodd" clip-rule="evenodd" d="M52.4318 42.3145C56.8001 42.604 58.7825 44.9282 58.3791 49.2871C57.8239 51.7564 56.2971 53.1919 53.799 53.5938C51.1586 53.9027 49.1761 52.9229 47.8517 50.6543C46.7038 47.8104 47.2736 45.3722 49.5607 43.3398C50.4728 42.8159 51.4298 42.4741 52.4318 42.3145ZM52.7052 45.7324C54.7954 46.1147 55.4562 47.2996 54.6877 49.2871C53.5027 50.5631 52.3179 50.5631 51.133 49.2871C50.3515 47.5234 50.8755 46.3385 52.7052 45.7324Z" fill="#D11116"/>
<path opacity="0.893" fill-rule="evenodd" clip-rule="evenodd" d="M44.9121 48.6035C45.0944 48.6035 45.2767 48.6035 45.459 48.6035C45.5149 49.2018 45.606 49.7943 45.7324 50.3809C38.851 50.3809 31.9694 50.3809 25.0879 50.3809C25.1791 49.8795 25.2701 49.3783 25.3613 48.877C31.7417 48.8998 38.122 48.877 44.502 48.8086C44.6711 48.7769 44.8078 48.7085 44.9121 48.6035Z" fill="#D11116"/>
<path opacity="0.87" fill-rule="evenodd" clip-rule="evenodd" d="M6.35695 48.8773C7.72717 48.832 9.09436 48.8775 10.4585 49.0141C10.6023 49.4594 10.6934 49.915 10.732 50.3813C9.45509 50.4039 8.17906 50.3813 6.90383 50.3129C6.44304 49.95 6.26076 49.4715 6.35695 48.8773Z" fill="#D11116"/>
</svg>
