<svg width="70" height="70" viewBox="0 0 70 70" fill="none" xmlns="http://www.w3.org/2000/svg">
<g clip-path="url(#clip0_2117_761)">
<path opacity="0.955" fill-rule="evenodd" clip-rule="evenodd" d="M23.3101 1.02535C23.7896 0.956106 24.2225 1.04725 24.6089 1.29879C24.9655 2.36856 25.3756 3.41673 25.8394 4.44332C26.386 5.30886 27.1379 5.92409 28.0952 6.28902C28.8596 6.58941 29.6344 6.86284 30.4195 7.10933C30.9663 7.61064 30.9663 8.11193 30.4195 8.61324C29.1225 9.02956 27.8921 9.57644 26.7281 10.2539C26.3369 10.6495 25.9951 11.0825 25.7027 11.5527C25.3112 12.4991 24.9466 13.4561 24.6089 14.4238C24.1076 14.9707 23.6064 14.9707 23.105 14.4238C22.7484 13.354 22.3383 12.3059 21.8745 11.2793C21.3819 10.5131 20.721 9.94343 19.8921 9.57027C19.0263 9.25127 18.1603 8.93225 17.2945 8.61324C16.7742 8.11865 16.7742 7.61734 17.2945 7.10933C18.2162 6.81729 19.1277 6.49827 20.0288 6.1523C20.6326 5.82258 21.1566 5.38965 21.6011 4.85348C22.2381 3.60195 22.8076 2.32591 23.3101 1.02535Z" fill="#D11116"/>
<path opacity="0.969" fill-rule="evenodd" clip-rule="evenodd" d="M-0.0683594 29.1895C-0.0683594 29.0072 -0.0683594 28.8248 -0.0683594 28.6426C3.25399 23.4594 6.64917 18.3098 10.1172 13.1934C10.7687 12.3327 11.6119 11.763 12.6465 11.4844C14.6517 11.3932 16.6569 11.3932 18.6621 11.4844C19.2046 11.6162 19.6376 11.9124 19.9609 12.3731C20.3394 13.1897 20.6356 14.0328 20.8496 14.9023C19.6103 19.668 18.2887 24.4076 16.8848 29.1211C11.2339 29.1895 5.58287 29.2123 -0.0683594 29.1895ZM12.7832 16.0645C13.94 16.1733 14.5325 16.8112 14.5605 17.9785C14.3042 20.1254 13.1421 21.4926 11.0742 22.0801C10.2102 21.9453 9.7089 21.4439 9.57031 20.5762C9.63819 18.3399 10.7092 16.836 12.7832 16.0645ZM7.86133 23.4473C8.67959 23.3538 9.13531 23.7184 9.22852 24.541C9.14005 25.4975 8.63874 26.0899 7.72461 26.3184C7.0376 26.2478 6.67301 25.8604 6.63086 25.1563C6.80557 24.4126 7.21573 23.8429 7.86133 23.4473Z" fill="#D11116"/>
<path opacity="0.985" fill-rule="evenodd" clip-rule="evenodd" d="M28.916 11.4161C32.1847 11.3713 35.4431 11.4169 38.6914 11.5528C40.3739 17.4171 41.9917 23.296 43.5449 29.1895C35.4324 29.235 27.3205 29.1895 19.209 29.0528C20.3483 25.0424 21.4877 21.0319 22.627 17.0215C23.2524 17.0049 23.8905 16.9822 24.541 16.9532C25.5019 16.6904 26.2082 16.1207 26.6602 15.2442C26.9979 14.2765 27.3625 13.3195 27.7539 12.3731C28.0876 11.9693 28.4751 11.6503 28.916 11.4161Z" fill="#D11116"/>
<path opacity="0.982" fill-rule="evenodd" clip-rule="evenodd" d="M40.9473 11.4158C44.0465 11.393 47.1455 11.4158 50.2441 11.4841C51.4534 11.8276 52.3876 12.5339 53.0469 13.6033C56.1575 18.3209 59.302 23.0148 62.4805 27.6853C62.7643 28.1492 62.9237 28.6505 62.959 29.1892C57.2623 29.1892 51.5658 29.1892 45.8691 29.1892C44.271 23.2527 42.6304 17.3283 40.9473 11.4158Z" fill="#D11116"/>
<path opacity="0.972" fill-rule="evenodd" clip-rule="evenodd" d="M-0.0683594 31.377C5.62826 31.377 11.3249 31.377 17.0215 31.377C21.009 43.8636 25.0651 56.3277 29.1895 68.7695C29.1211 68.7924 29.0527 68.8151 28.9844 68.8379C28.3481 68.3838 27.8012 67.837 27.3438 67.1973C18.6724 56.0071 9.96792 44.8418 1.23047 33.7012C0.724098 33.0504 0.291155 32.3668 -0.0683594 31.6504C-0.0683594 31.5592 -0.0683594 31.4681 -0.0683594 31.377Z" fill="#D11116"/>
<path opacity="0.981" fill-rule="evenodd" clip-rule="evenodd" d="M19.3457 31.377C27.4121 31.377 35.4785 31.377 43.5449 31.377C39.5995 43.6918 35.6118 55.9964 31.582 68.291C31.5254 68.3535 31.4571 68.3992 31.377 68.4277C27.2564 56.1116 23.2459 43.7613 19.3457 31.377Z" fill="#D11116"/>
<path opacity="0.973" fill-rule="evenodd" clip-rule="evenodd" d="M45.8691 31.3774C51.5665 31.3319 57.2631 31.3774 62.959 31.5141C62.6194 32.376 62.1409 33.1507 61.5234 33.8384C52.63 45.1469 43.789 56.4946 35 67.8813C34.6627 68.3616 34.2297 68.6578 33.7012 68.77C37.8256 56.3282 41.8816 43.8641 45.8691 31.3774Z" fill="#D11116"/>
<path opacity="0.954" fill-rule="evenodd" clip-rule="evenodd" d="M69.9318 45.1855C69.9318 45.5045 69.9318 45.8236 69.9318 46.1425C69.0326 46.648 68.0756 47.0353 67.0607 47.3046C66.2318 47.6777 65.5709 48.2474 65.0783 49.0136C64.6146 50.0402 64.2044 51.0883 63.8478 52.1581C63.4015 52.6263 62.9229 52.6718 62.4123 52.2949C61.9738 51.1389 61.4953 49.9995 60.9768 48.8769C60.5894 48.4896 60.202 48.1021 59.8146 47.7148C58.708 47.1787 57.5686 46.723 56.3967 46.3476C56.0119 45.8095 56.0575 45.3081 56.5334 44.8437C57.801 44.5277 58.986 44.0265 60.0881 43.3398C60.4807 42.9929 60.8225 42.6056 61.1135 42.1777C61.5772 41.1511 61.9874 40.103 62.3439 39.0331C62.8177 38.6738 63.2962 38.6738 63.7795 39.0331C64.1534 40.0412 64.5409 41.0437 64.9416 42.041C65.9883 43.5339 67.4239 44.4226 69.2482 44.707C69.5332 44.8023 69.7611 44.9618 69.9318 45.1855Z" fill="#D11116"/>
<path opacity="0.955" fill-rule="evenodd" clip-rule="evenodd" d="M8.13451 53.2522C8.53748 53.2143 8.92486 53.2598 9.29661 53.3889C9.68804 54.3352 10.0526 55.2923 10.3904 56.26C10.766 56.9097 11.2445 57.4794 11.8259 57.969C12.9727 58.549 14.1575 59.0504 15.3806 59.4729C15.5929 59.9603 15.5474 60.4161 15.2439 60.84C14.1741 61.1966 13.1259 61.6068 12.0993 62.0705C11.2338 62.6171 10.6186 63.3691 10.2536 64.3264C9.95326 65.0908 9.67982 65.8656 9.43333 66.6506C8.92124 67.1828 8.41993 67.1828 7.92943 66.6506C7.60226 65.9427 7.32882 65.2134 7.10911 64.4631C6.74516 63.5527 6.1755 62.8007 5.40013 62.2072C4.32856 61.6981 3.23481 61.2424 2.11888 60.84C1.58668 60.3495 1.58668 59.8483 2.11888 59.3361C3.18865 58.9796 4.23682 58.5694 5.26341 58.1057C6.02957 57.6131 6.59924 56.9522 6.9724 56.1232C7.29519 55.1303 7.68257 54.1732 8.13451 53.2522Z" fill="#D11116"/>
</g>
<defs>
<clipPath id="clip0_2117_761">
<rect width="70" height="70" fill="white"/>
</clipPath>
</defs>
</svg>
