<svg width="40" height="40" viewBox="0 0 40 40" fill="none" xmlns="http://www.w3.org/2000/svg">
<path opacity="0.992" fill-rule="evenodd" clip-rule="evenodd" d="M29.4149 4.96088C29.9913 4.89755 30.5381 4.98869 31.0556 5.23432C33.3081 7.48692 35.5608 9.73955 37.8134 11.9921C38.178 12.7213 38.178 13.4505 37.8134 14.1796C35.5608 16.4322 33.3081 18.6849 31.0556 20.9374C29.8453 21.5269 28.8949 21.2535 28.204 20.1171C28.0121 19.4699 28.0642 18.8449 28.3602 18.2421C29.4409 17.1614 30.5217 16.0806 31.6024 14.9999C22.1233 14.9739 12.6441 14.9478 3.16493 14.9218C2.07262 14.4955 1.64293 13.7012 1.87587 12.539C2.09722 11.901 2.52691 11.4713 3.16493 11.2499C12.6441 11.2239 22.1233 11.1978 31.6024 11.1718C30.5217 10.0911 29.4409 9.01033 28.3602 7.92963C27.7467 6.57961 28.0982 5.59002 29.4149 4.96088Z" fill="#D11116"/>
<path opacity="0.992" fill-rule="evenodd" clip-rule="evenodd" d="M9.41406 18.7105C10.5755 18.5161 11.3698 18.9588 11.7969 20.0386C11.8992 20.6145 11.8211 21.1614 11.5625 21.6792C10.4818 22.76 9.40102 23.8407 8.32031 24.9214C17.7995 24.9475 27.2787 24.9735 36.7578 24.9996C37.8502 25.4259 38.2798 26.2202 38.0469 27.3824C37.8256 28.0204 37.3959 28.4501 36.7578 28.6714C27.2787 28.6975 17.7995 28.7235 8.32031 28.7496C9.40102 29.8303 10.4818 30.911 11.5625 31.9917C12.152 33.202 11.8785 34.1525 10.7422 34.8433C10.0949 35.0352 9.46992 34.9831 8.86719 34.6871C6.61459 32.4345 4.36198 30.1818 2.10938 27.9292C1.74479 27.2001 1.74479 26.4709 2.10938 25.7417C4.36198 23.4892 6.61459 21.2365 8.86719 18.9839C9.05664 18.8892 9.23899 18.7981 9.41406 18.7105Z" fill="#D11116"/>
</svg>
