<svg width="116" height="20" viewBox="0 0 116 20" fill="none" xmlns="http://www.w3.org/2000/svg">
<path opacity="0.99" fill-rule="evenodd" clip-rule="evenodd" d="M9.82374 1.5041C10.0889 1.47747 10.3168 1.5556 10.5073 1.73848C11.3135 3.40301 12.1404 5.05664 12.9878 6.69941C14.7832 6.97172 16.58 7.23863 18.3784 7.50019C18.7524 7.61633 18.9152 7.87023 18.8667 8.26191C18.8384 8.35758 18.7993 8.44875 18.7495 8.53535C17.4475 9.81141 16.1453 11.0874 14.8433 12.3635C15.1211 14.1804 15.4141 15.9968 15.7222 17.8127C15.7125 18.2196 15.5042 18.4475 15.0972 18.4963C14.9796 18.4662 14.8624 18.4337 14.7456 18.3986C13.1633 17.5488 11.5747 16.709 9.97999 15.8791C8.39632 16.7268 6.8078 17.5666 5.21437 18.3986C4.52081 18.5762 4.20179 18.3093 4.25733 17.5979C4.54378 15.9312 4.83026 14.2645 5.11671 12.5979C5.14851 12.504 5.14198 12.4129 5.09718 12.3244C3.79566 11.0685 2.50008 9.80547 1.21046 8.53535C1.00858 8.20379 1.04114 7.89781 1.30812 7.61738C1.39473 7.56758 1.48587 7.52851 1.58155 7.50019C3.37994 7.23863 5.17683 6.97172 6.97218 6.69941C7.8196 5.05664 8.64644 3.40301 9.45265 1.73848C9.5637 1.63446 9.68737 1.55634 9.82374 1.5041Z" fill="#D11116"/>
<path opacity="0.99" fill-rule="evenodd" clip-rule="evenodd" d="M33.8237 1.5041C34.0889 1.47747 34.3168 1.5556 34.5073 1.73848C35.3135 3.40301 36.1404 5.05664 36.9878 6.69941C38.7832 6.97172 40.58 7.23863 42.3784 7.50019C42.7524 7.61633 42.9152 7.87023 42.8667 8.26191C42.8384 8.35758 42.7993 8.44875 42.7495 8.53535C41.4475 9.81141 40.1453 11.0874 38.8433 12.3635C39.1211 14.1804 39.4141 15.9968 39.7222 17.8127C39.7125 18.2196 39.5042 18.4475 39.0972 18.4963C38.9796 18.4662 38.8624 18.4337 38.7456 18.3986C37.1633 17.5488 35.5747 16.709 33.98 15.8791C32.3963 16.7268 30.8078 17.5666 29.2144 18.3986C28.5208 18.5762 28.2018 18.3093 28.2573 17.5979C28.5438 15.9312 28.8303 14.2645 29.1167 12.5979C29.1485 12.504 29.142 12.4129 29.0972 12.3244C27.7957 11.0685 26.5001 9.80547 25.2105 8.53535C25.0086 8.20379 25.0411 7.89781 25.3081 7.61738C25.3947 7.56758 25.4859 7.52851 25.5816 7.50019C27.3799 7.23863 29.1768 6.97172 30.9722 6.69941C31.8196 5.05664 32.6464 3.40301 33.4526 1.73848C33.5637 1.63446 33.6874 1.55634 33.8237 1.5041Z" fill="#D11116"/>
<path opacity="0.99" fill-rule="evenodd" clip-rule="evenodd" d="M57.8237 1.5041C58.0889 1.47747 58.3168 1.5556 58.5073 1.73848C59.3135 3.40301 60.1404 5.05664 60.9878 6.69941C62.7832 6.97172 64.58 7.23863 66.3784 7.50019C66.7524 7.61633 66.9152 7.87023 66.8667 8.26191C66.8384 8.35758 66.7993 8.44875 66.7495 8.53535C65.4475 9.81141 64.1453 11.0874 62.8433 12.3635C63.1211 14.1804 63.4141 15.9968 63.7222 17.8127C63.7125 18.2196 63.5042 18.4475 63.0972 18.4963C62.9796 18.4662 62.8624 18.4337 62.7456 18.3986C61.1633 17.5488 59.5747 16.709 57.98 15.8791C56.3963 16.7268 54.8078 17.5666 53.2144 18.3986C52.5208 18.5762 52.2018 18.3093 52.2573 17.5979C52.5438 15.9312 52.8303 14.2645 53.1167 12.5979C53.1485 12.504 53.142 12.4129 53.0972 12.3244C51.7957 11.0685 50.5001 9.80547 49.2105 8.53535C49.0086 8.20379 49.0411 7.89781 49.3081 7.61738C49.3947 7.56758 49.4859 7.52851 49.5816 7.50019C51.3799 7.23863 53.1768 6.97172 54.9722 6.69941C55.8196 5.05664 56.6464 3.40301 57.4526 1.73848C57.5637 1.63446 57.6874 1.55634 57.8237 1.5041Z" fill="#D11116"/>
<path opacity="0.99" fill-rule="evenodd" clip-rule="evenodd" d="M81.8237 1.5041C82.0889 1.47747 82.3168 1.5556 82.5073 1.73848C83.3135 3.40301 84.1404 5.05664 84.9878 6.69941C86.7832 6.97172 88.58 7.23863 90.3784 7.50019C90.7524 7.61633 90.9152 7.87023 90.8667 8.26191C90.8384 8.35758 90.7993 8.44875 90.7495 8.53535C89.4475 9.81141 88.1453 11.0874 86.8433 12.3635C87.1211 14.1804 87.4141 15.9968 87.7222 17.8127C87.7125 18.2196 87.5042 18.4475 87.0972 18.4963C86.9796 18.4662 86.8624 18.4337 86.7456 18.3986C85.1633 17.5488 83.5747 16.709 81.98 15.8791C80.3963 16.7268 78.8078 17.5666 77.2144 18.3986C76.5208 18.5762 76.2018 18.3093 76.2573 17.5979C76.5438 15.9312 76.8303 14.2645 77.1167 12.5979C77.1485 12.504 77.142 12.4129 77.0972 12.3244C75.7957 11.0685 74.5001 9.80547 73.2105 8.53535C73.0086 8.20379 73.0411 7.89781 73.3081 7.61738C73.3947 7.56758 73.4859 7.52851 73.5816 7.50019C75.3799 7.23863 77.1768 6.97172 78.9722 6.69941C79.8196 5.05664 80.6464 3.40301 81.4526 1.73848C81.5637 1.63446 81.6874 1.55634 81.8237 1.5041Z" fill="#D11116"/>
<path opacity="0.99" fill-rule="evenodd" clip-rule="evenodd" d="M105.824 1.5041C106.089 1.47747 106.317 1.5556 106.507 1.73848C107.314 3.40301 108.14 5.05664 108.988 6.69941C110.783 6.97172 112.58 7.23863 114.378 7.50019C114.752 7.61633 114.915 7.87023 114.867 8.26191C114.838 8.35758 114.799 8.44875 114.75 8.53535C113.447 9.81141 112.145 11.0874 110.843 12.3635C111.121 14.1804 111.414 15.9968 111.722 17.8127C111.712 18.2196 111.504 18.4475 111.097 18.4963C110.98 18.4662 110.862 18.4337 110.746 18.3986C109.163 17.5488 107.575 16.709 105.98 15.8791C104.396 16.7268 102.808 17.5666 101.214 18.3986C100.521 18.5762 100.202 18.3093 100.257 17.5979C100.544 15.9312 100.83 14.2645 101.117 12.5979C101.149 12.504 101.142 12.4129 101.097 12.3244C99.7957 11.0685 98.5001 9.80547 97.2105 8.53535C97.0086 8.20379 97.0411 7.89781 97.3081 7.61738C97.3947 7.56758 97.4859 7.52851 97.5816 7.50019C99.3799 7.23863 101.177 6.97172 102.972 6.69941C103.82 5.05664 104.646 3.40301 105.453 1.73848C105.564 1.63446 105.687 1.55634 105.824 1.5041Z" fill="#D11116"/>
</svg>
