<svg width="50" height="51" viewBox="0 0 50 51" fill="none" xmlns="http://www.w3.org/2000/svg">
<path opacity="0.977" fill-rule="evenodd" clip-rule="evenodd" d="M14.5013 1.32973C9.70192 1.10285 6.52809 3.25129 4.97984 7.77504C4.60406 9.26141 4.6692 10.7262 5.17516 12.1696C6.22115 14.475 7.57203 16.5747 9.22789 18.4684C5.4857 24.2365 4.75328 30.3725 7.03062 36.8766C10.208 44.3159 15.8232 48.5314 23.8763 49.5231C31.2016 49.8877 37.1098 47.2022 41.6009 41.4664C45.538 35.684 46.3843 29.4665 44.14 22.8141C41.4443 16.18 36.6103 12.0296 29.638 10.3629C27.0995 9.8123 24.5604 9.79602 22.0209 10.3141C21.9656 6.31391 20.1101 3.49816 16.4545 1.86684C15.7994 1.65454 15.1483 1.4755 14.5013 1.32973ZM14.2084 2.59926C10.2043 2.47589 7.55133 4.29881 6.24937 8.06801C5.85904 9.43946 5.9567 10.7741 6.54234 12.0719C7.09488 13.243 7.74596 14.3497 8.49547 15.3922C9.93238 17.253 11.4787 19.0271 13.1341 20.7145C13.2969 20.7796 13.4596 20.7796 13.6224 20.7145C15.5805 18.7248 17.3547 16.5927 18.9447 14.318C19.6825 13.2003 20.2359 11.9958 20.6048 10.7047C20.7863 7.04808 19.2075 4.49274 15.8685 3.03871C15.3067 2.87404 14.7534 2.72755 14.2084 2.59926ZM25.9271 11.193C24.4794 11.2275 23.047 11.3903 21.6302 11.6813C21.0514 13.3762 20.205 14.9224 19.0912 16.32C19.2525 16.957 19.3502 17.608 19.3841 18.2731C19.025 20.8664 18.6343 23.4543 18.2123 26.0368C18.322 28.2382 19.0219 30.2239 20.3119 31.9938C21.1256 32.8727 21.9395 33.7516 22.7533 34.6305C23.2576 35.5565 23.5017 36.5494 23.4857 37.609C23.3782 41.2858 22.1738 44.541 19.8724 47.3746C26.5874 49.326 32.6095 48.0565 37.9388 43.5661C36.4556 43.5047 35.0884 43.0815 33.8373 42.2965C33.3614 41.8816 33.0196 41.377 32.8119 40.7829C32.6432 39.9428 32.513 39.0964 32.4213 38.2438C32.263 37.6192 31.9213 37.1147 31.3959 36.7301C30.4682 36.1197 29.5242 35.5337 28.5638 34.9723C27.855 34.459 27.2854 33.8243 26.8548 33.068C26.2697 30.9016 27.0346 29.4531 29.1498 28.7223C30.0319 28.5394 30.9108 28.3441 31.7865 28.1364C33.6123 27.2345 34.5563 25.7535 34.6185 23.693C34.413 22.4087 34.1363 21.1392 33.7884 19.8844C33.7144 19.2603 33.747 18.6418 33.8861 18.0289C34.1053 17.4921 34.3983 17.0038 34.765 16.5641C35.2841 15.9635 35.8213 15.3776 36.3763 14.8063C33.2666 12.5327 29.7835 11.3283 25.9271 11.193Z" fill="#7D7D7D"/>
<path opacity="0.97" fill-rule="evenodd" clip-rule="evenodd" d="M14.1106 5.92036C11.3564 5.76132 9.79392 7.04713 9.42312 9.77778C9.63532 12.2036 10.9537 13.5219 13.3782 13.7329C16.1215 13.3661 17.391 11.8036 17.1868 9.04536C16.7948 7.36758 15.7694 6.32591 14.1106 5.92036Z" fill="#7D7D7D"/>
</svg>
