<svg width="22" height="21" viewBox="0 0 22 21" fill="none" xmlns="http://www.w3.org/2000/svg">
<path opacity="0.971" fill-rule="evenodd" clip-rule="evenodd" d="M21.2111 18.7733C21.2111 19.1118 21.2111 19.4504 21.2111 19.7889C21.0028 20.3618 20.6121 20.7524 20.0393 20.9608C19.7007 20.9608 19.3621 20.9608 19.0236 20.9608C18.7707 20.8599 18.5364 20.7166 18.3205 20.5311C16.8752 19.0858 15.4299 17.6405 13.9846 16.1952C10.9318 18.0657 7.8198 18.1569 4.64863 16.4686C1.38878 14.3099 -0.00442049 11.276 0.468939 7.36706C1.18808 3.88753 3.2323 1.58284 6.60175 0.452998C10.0855 -0.437314 13.0933 0.382998 15.6252 2.91394C18.0483 5.83956 18.5432 9.0687 17.1096 12.6014C16.8981 12.9855 16.6767 13.3631 16.4455 13.7342C17.8908 15.1796 19.3361 16.6249 20.7814 18.0702C20.9669 18.286 21.1102 18.5204 21.2111 18.7733ZM9.02363 3.46081C11.8221 3.64315 13.606 5.07542 14.3752 7.75768C14.7859 10.4388 13.8093 12.431 11.4455 13.7342C9.19933 14.6546 7.16808 14.3161 5.35175 12.7186C3.64019 10.8159 3.31472 8.69347 4.37519 6.35143C5.42745 4.58214 6.97691 3.61854 9.02363 3.46081Z" fill="white"/>
</svg>
