<svg width="176" height="50" viewBox="0 0 176 50" fill="none" xmlns="http://www.w3.org/2000/svg">
<path opacity="0.882" fill-rule="evenodd" clip-rule="evenodd" d="M0.12207 42.3862C0.12207 40.9031 0.12207 39.4195 0.12207 37.9364C0.578468 37.9364 1.03487 37.9364 1.49126 37.9364C1.49126 37.4801 1.49126 37.0235 1.49126 36.5672C2.17586 36.5672 2.86046 36.5672 3.54505 36.5672C3.48801 27.5527 3.54506 18.5387 3.7162 9.52561C4.54377 8.7794 5.45658 8.66542 6.45459 9.18332C6.62553 11.0054 6.68256 12.8308 6.62573 14.6601C9.02453 14.7169 11.4206 14.6601 13.814 14.4889C13.159 14.0053 12.7026 13.3775 12.4448 12.6063C11.348 12.3653 10.2641 12.1373 9.19297 11.9217C9.51107 10.7363 9.73928 9.48112 9.87757 8.15642C10.2769 7.52899 10.6763 6.90121 11.0756 6.27378C16.644 4.15153 22.2348 2.09774 27.8482 0.112414C32.7864 -0.162109 37.6927 0.0662035 42.567 0.79701C43.7582 1.70273 44.8995 2.67246 45.99 3.70655C46.13 5.17706 46.5295 6.54625 47.1881 7.81412C47.3472 9.30244 47.5184 10.7856 47.7015 12.264C46.6685 12.2075 45.6416 12.2647 44.6208 12.4351C44.4261 13.4288 43.8558 14.1134 42.9093 14.4889C44.8457 14.6597 46.7855 14.7169 48.7284 14.6601C48.7284 15.4587 48.7284 16.2576 48.7284 17.0562C34.6942 17.0562 20.66 17.0562 6.62573 17.0562C6.62573 24.0161 6.62573 30.9764 6.62573 37.9364C7.31968 37.8809 8.00427 37.9381 8.67952 38.1075C6.49522 39.795 5.46832 42.02 5.59884 44.7823C4.68603 44.7823 3.77326 44.7823 2.86046 44.7823C2.86046 43.9837 2.86046 43.1848 2.86046 42.3862C1.94766 42.3862 1.03487 42.3862 0.12207 42.3862ZM28.1905 0.968159C29.1033 0.968159 30.0161 0.968159 30.9289 0.968159C30.7034 1.97965 30.5893 3.00655 30.5866 4.04884C27.0386 4.22102 23.5015 4.39217 19.9754 4.56229C20.3349 4.08821 20.7914 3.74591 21.3446 3.5354C23.6244 2.56772 25.9064 1.71197 28.1905 0.968159ZM32.2981 0.968159C34.6955 1.06161 37.0916 1.17559 39.4864 1.31046C39.4864 1.76674 39.4864 2.22337 39.4864 2.67965C36.9954 3.14963 34.4851 3.49192 31.9558 3.70655C31.88 2.7553 31.9941 1.84239 32.2981 0.968159ZM40.5132 1.31046C43.0332 1.88757 43.0904 2.3442 40.6844 2.67965C40.5167 2.23706 40.4595 1.78043 40.5132 1.31046ZM14.4986 10.2102C16.6364 10.1151 17.378 11.028 16.7235 12.9486C15.7259 13.8283 14.8131 13.7143 13.9851 12.6063C13.7767 11.7283 13.9479 10.9294 14.4986 10.2102ZM40.8555 10.2102C42.8214 10.2841 43.4488 11.1971 42.7382 12.9486C41.3782 13.841 40.4085 13.4987 39.8287 11.9217C39.9166 11.1714 40.2589 10.6008 40.8555 10.2102ZM4.91424 11.5794C5.68791 11.832 5.74497 12.1743 5.08539 12.6063C4.92013 12.2818 4.86307 11.9395 4.91424 11.5794ZM18.6062 12.264C25.2279 12.15 31.8456 12.264 38.4595 12.6063C38.7172 13.3775 39.1735 14.0053 39.8287 14.4889C32.184 14.7173 24.5393 14.7173 16.8947 14.4889C17.7503 13.9799 18.3208 13.2382 18.6062 12.264Z" fill="#D11116"/>
<path opacity="0.902" fill-rule="evenodd" clip-rule="evenodd" d="M175.378 38.2787C175.378 39.6479 175.378 41.0171 175.378 42.3863C174.808 42.3863 174.238 42.3863 173.667 42.3863C173.667 42.8426 173.667 43.2992 173.667 43.7555C171.043 43.7555 168.418 43.7555 165.794 43.7555C165.794 44.3261 165.794 44.8964 165.794 45.467C165.074 45.5693 164.389 45.4553 163.74 45.1247C164.046 40.3893 161.821 37.6509 157.065 36.9095C152.164 37.6468 149.826 40.4992 150.048 45.467C149.364 45.467 148.679 45.467 147.995 45.467C147.995 44.8964 147.995 44.3261 147.995 43.7555C143.659 43.7555 139.323 43.7555 134.987 43.7555C134.987 44.0978 134.987 44.4401 134.987 44.7824C134.189 44.7824 133.39 44.7824 132.591 44.7824C132.572 42.12 131.545 39.9522 129.51 38.2787C129.69 38.0419 129.918 37.8707 130.195 37.7653C129.728 37.0995 129.443 36.3577 129.339 35.5403C122.722 35.9966 116.104 35.9966 109.486 35.5403C109.318 35.9829 109.261 36.4396 109.315 36.9095C108.571 37.0533 107.886 37.0533 107.261 36.9095C108.544 34.7914 107.973 33.8217 105.55 34C104.161 35.5742 104.503 36.7151 106.576 37.423C103.603 38.9712 102.119 41.4244 102.127 44.7824C101.328 44.7824 100.529 44.7824 99.7305 44.7824C99.7305 43.9838 99.7305 43.1849 99.7305 42.3863C79.1926 42.3863 58.6547 42.3863 38.1168 42.3863C38.1168 43.1849 38.1168 43.9838 38.1168 44.7824C37.3182 44.7824 36.5193 44.7824 35.7207 44.7824C35.6738 42.1234 34.647 39.9556 32.6401 38.2787C34.9136 37.9943 37.1957 37.8231 39.486 37.7653C39.0164 37.3401 38.6741 36.8267 38.4591 36.2249C31.7621 35.7714 25.0873 35.7714 18.4347 36.2249C18.1929 36.7661 17.9076 37.2796 17.5789 37.7653C19.975 37.8793 22.3711 37.9936 24.7672 38.1076C22.4101 39.7219 21.3832 41.9468 21.6865 44.7824C21.0019 44.7824 20.3173 44.7824 19.6327 44.7824C19.6398 41.4244 18.1565 38.9712 15.1829 37.423C17.2562 36.7151 17.5984 35.5742 16.2097 34C14.7477 33.4821 13.949 33.9955 13.8137 35.5403C13.8896 36.0726 14.1179 36.5292 14.4983 36.9095C14.3842 37.0235 14.27 37.1378 14.156 37.2518C13.449 37.0968 12.8786 36.7545 12.4445 36.2249C11.4359 35.9439 10.409 35.7728 9.36378 35.7115C9.18514 35.5195 9.07105 35.2911 9.02148 35.0269C9.57878 33.7997 9.86405 32.4874 9.87723 31.0905C10.6814 30.4045 10.8526 29.6059 10.3907 28.6944C10.4656 28.2021 10.6368 27.7459 10.9041 27.3252C12.1022 26.3554 13.3002 25.3854 14.4983 24.4156C17.9543 23.9036 21.4343 23.6184 24.9383 23.5599C27.2163 23.4699 29.4413 23.7554 31.6132 24.4156C36.2246 26.3524 40.9028 28.1207 45.6474 29.7213C47.1552 31.4625 47.8398 33.5163 47.7012 35.8826C46.6681 35.8262 45.6412 35.8833 44.6205 36.0538C44.4048 36.7014 44.0625 37.272 43.5936 37.7653C45.4157 37.9361 47.2411 37.9932 49.0704 37.9364C48.9564 27.0945 49.0704 16.2553 49.4127 5.41809C50.368 4.89095 51.2238 5.00528 51.9799 5.76039C52.1511 8.72469 52.2079 11.6914 52.1511 14.6601C54.5499 14.717 56.946 14.6601 59.3393 14.489C58.3918 13.8859 57.8784 13.0301 57.799 11.9218C56.8621 12.3017 55.892 12.3589 54.8894 12.0929C54.441 9.78547 55.1256 7.73169 56.9432 5.93154C62.4234 3.98968 67.9002 2.04988 73.3735 0.112469C78.3074 -0.162054 83.2136 0.0659169 88.0924 0.797066C89.3928 1.75447 90.5908 2.83853 91.6865 4.0489C92.6011 6.75716 93.1146 9.49555 93.2268 12.2641C92.086 12.2641 90.9447 12.2641 89.8039 12.2641C89.823 13.3118 89.3664 14.0536 88.4347 14.489C90.2567 14.6598 92.0822 14.717 93.9114 14.6601C93.9114 15.4587 93.9114 16.2576 93.9114 17.0562C79.9912 17.0562 66.0713 17.0562 52.1511 17.0562C52.1511 24.0162 52.1511 30.9765 52.1511 37.9364C54.3308 38.0494 56.4989 37.9351 58.6547 37.5941C58.1361 36.8934 57.8507 36.0945 57.799 35.198C56.9535 35.8782 55.9838 36.0493 54.8894 35.7115C54.7108 35.5195 54.5968 35.2911 54.5471 35.0269C54.9712 32.6086 55.4847 30.1553 56.0875 27.6675C57.3824 26.7036 58.5804 25.6195 59.6816 24.4156C64.5611 23.7023 69.4676 23.4743 74.4004 23.731C79.8738 25.6685 85.3506 27.6083 90.8307 29.5501C92.6045 31.2678 93.4035 33.3787 93.2268 35.8826C92.086 35.8826 90.9447 35.8826 89.8039 35.8826C89.8134 36.5953 89.5851 37.2231 89.1193 37.7653C90.827 37.9361 92.5385 37.9932 94.2537 37.9364C94.1966 27.2105 94.2537 16.4853 94.4249 5.76039C95.181 5.00528 96.0368 4.89095 96.9921 5.41809C97.3337 8.49022 97.4481 11.5709 97.3344 14.6601C99.8472 14.717 102.357 14.6601 104.865 14.489C103.878 13.9451 103.365 13.0893 103.325 11.9218C102.278 12.2473 101.195 12.3613 100.073 12.2641C99.8962 9.76014 100.695 7.64919 102.469 5.93154C107.454 4.30768 112.361 2.4822 117.188 0.454768C122.678 -0.210318 128.155 -0.0963324 133.618 0.797066C134.849 1.84108 136.047 2.92479 137.212 4.0489C137.815 6.53672 138.328 8.98997 138.752 11.4083C138.703 11.6726 138.589 11.9009 138.41 12.0929C137.316 12.4308 136.346 12.2596 135.501 11.5795C135.565 12.8569 135.052 13.827 133.96 14.489C135.668 14.6598 137.38 14.717 139.095 14.6601C139.095 15.4587 139.095 16.2576 139.095 17.0562C125.175 17.0562 111.255 17.0562 97.3344 17.0562C97.3344 24.0162 97.3344 30.9765 97.3344 37.9364C99.6193 37.9932 101.901 37.9364 104.18 37.7653C103.715 37.2231 103.486 36.5953 103.496 35.8826C102.355 35.8826 101.214 35.8826 100.073 35.8826C100.185 33.1141 100.699 30.3757 101.613 27.6675C102.779 26.5434 103.977 25.4597 105.207 24.4156C110.087 23.7023 114.993 23.4743 119.926 23.731C125.403 25.6709 130.88 27.6103 136.356 29.5501C138.174 31.3503 138.859 33.4041 138.41 35.7115C137.316 36.0493 136.346 35.8782 135.501 35.198C135.519 36.2636 135.119 37.1194 134.303 37.7653C136.125 37.9361 137.95 37.9932 139.779 37.9364C139.722 29.6063 139.779 21.2771 139.951 12.9487C140.949 12.4308 141.861 12.5447 142.689 13.291C142.664 22.1044 142.949 30.8902 143.545 39.6479C144.115 39.6479 144.686 39.6479 145.256 39.6479C145.256 36.4532 145.256 33.2582 145.256 30.0636C144.914 30.0636 144.572 30.0636 144.229 30.0636C144.229 26.8689 144.229 23.6739 144.229 20.4792C144.572 20.4792 144.914 20.4792 145.256 20.4792C145.256 19.3383 145.256 18.1971 145.256 17.0562C146.055 17.0562 146.854 17.0562 147.652 17.0562C147.652 17.6268 147.652 18.1971 147.652 18.7677C152.674 18.7106 157.694 18.7677 162.713 18.9389C164.7 19.2928 166.64 19.8063 168.532 20.4792C170.274 23.3905 171.928 26.3572 173.496 29.379C173.667 32.3433 173.724 35.31 173.667 38.2787C174.238 38.2787 174.808 38.2787 175.378 38.2787ZM73.7158 0.968215C74.6561 0.861076 75.569 0.975061 76.4542 1.31051C76.2437 2.17961 76.0154 3.03535 75.7696 3.87775C72.3432 4.23682 68.9202 4.46479 65.5007 4.56235C65.8604 4.08826 66.3167 3.74596 66.8699 3.53545C69.1496 2.56777 71.4317 1.71203 73.7158 0.968215ZM77.4811 0.968215C80.0158 0.932274 82.5259 1.16059 85.0117 1.65281C84.8515 2.21213 84.5092 2.61125 83.9848 2.85086C81.829 3.24861 79.6612 3.53374 77.4811 3.7066C77.4811 2.79369 77.4811 1.88112 77.4811 0.968215ZM118.899 0.968215C119.932 0.911736 120.959 0.9689 121.98 1.13936C121.734 1.98176 121.506 2.83751 121.295 3.7066C117.882 4.23545 114.459 4.52093 111.026 4.56235C111.197 4.16596 111.482 3.88083 111.882 3.7066C114.245 2.74988 116.585 1.83697 118.899 0.968215ZM123.007 0.968215C125.523 1.02572 128.033 1.19687 130.537 1.48166C130.345 2.05535 130.003 2.51164 129.51 2.85086C127.355 3.24861 125.187 3.53374 123.007 3.7066C123.007 2.79369 123.007 1.88112 123.007 0.968215ZM86.0386 1.31051C88.2358 1.89961 88.2358 2.35589 86.0386 2.67971C85.6531 2.23198 85.6531 1.77535 86.0386 1.31051ZM131.222 1.31051C133.753 1.82259 133.81 2.27887 131.393 2.67971C131.225 2.23711 131.168 1.78049 131.222 1.31051ZM50.4396 7.81418C50.8763 8.11746 50.8763 8.45975 50.4396 8.84107C50.076 8.52445 50.076 8.18215 50.4396 7.81418ZM95.6229 7.81418C96.3965 8.0668 96.4537 8.40909 95.7941 8.84107C95.2026 8.54944 95.1454 8.20714 95.6229 7.81418ZM60.0239 10.2103C62.1616 10.1151 62.9033 11.028 62.2489 12.9487C61.2511 13.8284 60.3385 13.7144 59.5105 12.6064C59.2253 11.6921 59.3965 10.8935 60.0239 10.2103ZM86.0386 10.2103C88.1642 10.1045 88.9057 11.0174 88.2635 12.9487C87.2657 13.8284 86.3531 13.7144 85.5251 12.6064C85.24 11.6921 85.4111 10.8935 86.0386 10.2103ZM105.55 10.2103C107.432 9.98127 108.174 10.7802 107.775 12.6064C106.287 14.006 105.203 13.7205 104.523 11.7506C104.826 11.1978 105.168 10.6844 105.55 10.2103ZM131.564 10.2103C133.447 9.98127 134.189 10.7802 133.789 12.6064C132.34 14.0806 131.369 13.7955 130.88 11.7506C130.886 11.1232 131.114 10.6097 131.564 10.2103ZM129.168 11.2372C129.416 12.1213 129.701 13.0339 130.024 13.9755C130.281 14.1898 130.566 14.361 130.88 14.489C123.235 14.7173 115.59 14.7173 107.946 14.489C109.037 13.827 109.55 12.8569 109.486 11.5795C115.966 12.2572 122.527 12.4855 129.168 12.2641C129.168 11.9218 129.168 11.5795 129.168 11.2372ZM63.7892 11.9218C70.4952 12.2596 77.2268 12.3739 83.9848 12.2641C84.0683 13.2098 84.5246 13.9512 85.354 14.489C77.7094 14.7173 70.0645 14.7173 62.42 14.489C63.4541 13.9622 63.9104 13.1065 63.7892 11.9218ZM140.806 15.687C141.435 15.7346 141.549 15.9629 141.149 16.3716C140.875 16.2152 140.761 15.9869 140.806 15.687ZM158.606 23.5599C161.354 23.4466 164.092 23.5606 166.821 23.9022C168.076 25.956 169.331 28.0098 170.586 30.0636C166.599 30.4055 162.606 30.5195 158.606 30.4059C158.606 28.1238 158.606 25.842 158.606 23.5599ZM21.3442 24.5868C22.4852 24.5868 23.6262 24.5868 24.7672 24.5868C24.7672 25.4997 24.7672 26.4123 24.7672 27.3252C22.5926 27.115 20.4247 26.8299 18.2635 26.4694C17.7136 26.1104 17.4854 25.5969 17.5789 24.9291C18.9041 25.0369 20.1592 24.9229 21.3442 24.5868ZM26.1364 24.5868C29.9772 24.8562 33.5143 25.9974 36.7476 28.0098C36.4625 28.1238 36.177 28.2381 35.8919 28.3521C32.7647 27.9862 29.6269 27.7578 26.4787 27.6675C26.2532 26.656 26.1391 25.6291 26.1364 24.5868ZM66.5276 24.5868C67.7828 24.5868 69.0377 24.5868 70.2929 24.5868C70.2929 25.4997 70.2929 26.4123 70.2929 27.3252C68.1128 27.1523 65.945 26.8672 63.7892 26.4694C63.2391 26.1104 63.0112 25.5969 63.1046 24.9291C64.317 25.0362 65.4579 24.9219 66.5276 24.5868ZM71.3198 24.9291C72.2796 24.5396 73.3064 24.4824 74.4004 24.7579C77.2059 25.5757 79.83 26.7166 82.2733 28.1809C78.8376 28.1611 75.4147 27.8756 72.0043 27.3252C71.8103 26.4756 71.582 25.6767 71.3198 24.9291ZM112.053 24.5868C113.308 24.5868 114.563 24.5868 115.819 24.5868C115.819 25.4997 115.819 26.4123 115.819 27.3252C113.505 27.1739 111.223 26.8316 108.973 26.2983C108.659 26.0149 108.431 25.6726 108.288 25.2714C109.593 25.0431 110.848 24.8148 112.053 24.5868ZM116.845 24.5868C120.833 24.7939 124.484 25.9919 127.799 28.1809C124.376 28.1159 120.953 27.8876 117.53 27.4963C117.248 26.5454 117.019 25.5757 116.845 24.5868ZM15.8674 24.9291C16.4987 25.1701 16.6699 25.6264 16.3809 26.2983C15.7875 26.0419 15.1599 25.8708 14.4983 25.7848C14.9632 25.4651 15.4196 25.1797 15.8674 24.9291ZM61.3931 24.9291C61.7648 24.9702 61.9932 25.1985 62.0777 25.6137C61.9637 25.842 61.8494 26.07 61.7354 26.2983C61.1826 26.0744 60.612 25.9033 60.0239 25.7848C60.4888 25.4651 60.9454 25.1797 61.3931 24.9291ZM106.576 24.9291C106.919 24.9291 107.261 24.9291 107.603 24.9291C107.693 25.435 107.579 25.8913 107.261 26.2983C106.708 26.0744 106.138 25.9033 105.55 25.7848C105.916 25.4932 106.258 25.2081 106.576 24.9291ZM40.8552 33.8288C42.821 33.9028 43.4485 34.8157 42.7379 36.5672C41.3779 37.4596 40.4082 37.1173 39.8283 35.5403C39.9163 34.79 40.2586 34.2194 40.8552 33.8288ZM60.0239 33.8288C61.9066 33.5998 62.6483 34.3988 62.2489 36.2249C61.3531 37.5859 60.4401 37.5859 59.5105 36.2249C59.2253 35.3107 59.3965 34.5121 60.0239 33.8288ZM86.0386 33.8288C88.3286 33.8021 89.0131 34.7722 88.0924 36.7384C87.062 37.499 86.2063 37.3278 85.5251 36.2249C85.24 35.3107 85.4111 34.5121 86.0386 33.8288ZM131.564 33.8288C133.447 33.5998 134.189 34.3988 133.789 36.2249C132.316 37.6335 131.232 37.348 130.537 35.3692C130.841 34.8164 131.183 34.3029 131.564 33.8288ZM63.7892 34.8557C64.0986 35.0984 64.2126 35.4407 64.1315 35.8826C70.7183 35.9942 77.2792 35.8802 83.8136 35.5403C83.8362 36.4906 84.2354 37.232 85.0117 37.7653C77.7094 37.9936 70.4068 37.9936 63.1046 37.7653C63.6793 36.8873 63.9076 35.9175 63.7892 34.8557Z" fill="#D11116"/>
<path opacity="0.647" fill-rule="evenodd" clip-rule="evenodd" d="M14.8407 10.8945C16.5819 10.8206 16.9242 11.4484 15.8676 12.7772C14.5111 12.8175 14.1688 12.1898 14.8407 10.8945Z" fill="#D11116"/>
<path opacity="0.647" fill-rule="evenodd" clip-rule="evenodd" d="M40.8563 10.8945C42.5976 10.8206 42.9399 11.4484 41.8832 12.7772C40.5267 12.8175 40.1844 12.1898 40.8563 10.8945Z" fill="#D11116"/>
<path opacity="0.647" fill-rule="evenodd" clip-rule="evenodd" d="M60.0237 10.8931C60.6357 10.7956 61.2063 10.9095 61.7352 11.2354C62.0956 12.4174 61.639 12.9308 60.366 12.7758C60.0559 12.1942 59.9419 11.5664 60.0237 10.8931Z" fill="#D11116"/>
<path opacity="0.647" fill-rule="evenodd" clip-rule="evenodd" d="M86.0393 10.8931C86.6513 10.7956 87.2219 10.9095 87.7508 11.2354C88.1112 12.4174 87.6546 12.9308 86.3816 12.7758C86.0715 12.1942 85.9575 11.5664 86.0393 10.8931Z" fill="#D11116"/>
<path opacity="0.647" fill-rule="evenodd" clip-rule="evenodd" d="M105.55 10.8955C106.121 10.8955 106.691 10.8955 107.262 10.8955C107.374 13.0985 106.69 13.4408 105.208 11.9224C105.423 11.6085 105.537 11.2662 105.55 10.8955Z" fill="#D11116"/>
<path opacity="0.67" fill-rule="evenodd" clip-rule="evenodd" d="M131.565 10.8955C132.136 10.8955 132.706 10.8955 133.276 10.8955C133.298 13.1882 132.613 13.4734 131.223 11.7513C131.48 11.5216 131.594 11.2364 131.565 10.8955Z" fill="#D11116"/>
<path opacity="0.647" fill-rule="evenodd" clip-rule="evenodd" d="M14.8407 34.5127C16.5819 34.4387 16.9242 35.0665 15.8676 36.3953C14.5111 36.4357 14.1688 35.8079 14.8407 34.5127Z" fill="#D11116"/>
<path opacity="0.647" fill-rule="evenodd" clip-rule="evenodd" d="M40.8563 34.5127C42.5976 34.4387 42.9399 35.0665 41.8832 36.3953C40.5267 36.4357 40.1844 35.8079 40.8563 34.5127Z" fill="#D11116"/>
<path opacity="0.669" fill-rule="evenodd" clip-rule="evenodd" d="M60.0231 34.5133C61.8468 34.3545 62.3031 34.9819 61.3923 36.396C60.9528 36.6301 60.5533 36.5729 60.1942 36.2248C60.0251 35.6655 59.9683 35.0949 60.0231 34.5133Z" fill="#D11116"/>
<path opacity="0.647" fill-rule="evenodd" clip-rule="evenodd" d="M86.0393 34.5132C86.6513 34.4157 87.2219 34.5297 87.7508 34.8555C88.1112 36.0375 87.6546 36.5509 86.3816 36.3959C86.0715 35.8143 85.9575 35.1865 86.0393 34.5132Z" fill="#D11116"/>
<path opacity="0.647" fill-rule="evenodd" clip-rule="evenodd" d="M105.55 34.5137C106.121 34.5137 106.691 34.5137 107.262 34.5137C107.374 36.7167 106.69 37.059 105.208 35.5406C105.423 35.2267 105.537 34.8844 105.55 34.5137Z" fill="#D11116"/>
<path opacity="0.647" fill-rule="evenodd" clip-rule="evenodd" d="M131.565 34.5137C132.136 34.5137 132.706 34.5137 133.276 34.5137C133.389 36.7167 132.704 37.059 131.223 35.5406C131.437 35.2267 131.552 34.8844 131.565 34.5137Z" fill="#D11116"/>
<path opacity="0.867" fill-rule="evenodd" clip-rule="evenodd" d="M11.0734 37.9375C14.5846 37.4949 17.0378 38.8641 18.4328 42.0451C19.0603 47.807 16.4931 50.3743 10.7311 49.7468C7.21984 48.3581 5.90771 45.7909 6.79467 42.0451C7.51733 39.8951 8.94355 38.5259 11.0734 37.9375ZM12.1003 40.6759C14.2209 40.8567 15.476 41.9975 15.8656 44.0989C14.9017 47.0355 13.0761 47.7772 10.3888 46.3238C8.73413 43.7587 9.30464 41.876 12.1003 40.6759Z" fill="#D11116"/>
<path opacity="0.868" fill-rule="evenodd" clip-rule="evenodd" d="M26.8191 37.9346C33.2576 37.9247 35.5967 41.0054 33.8362 47.1766C31.4436 50.0557 28.534 50.6831 25.1076 49.0593C21.6342 45.8496 21.5201 42.5409 24.7653 39.1326C25.4266 38.6332 26.1112 38.2341 26.8191 37.9346ZM27.846 40.673C30.7603 40.7904 31.9583 42.2736 31.4401 45.1229C30.4079 47.1328 28.8676 47.6463 26.8191 46.6632C25.5765 45.6192 25.1771 44.3072 25.6211 42.7268C26.1323 41.7635 26.874 41.0789 27.846 40.673Z" fill="#D11116"/>
<path opacity="0.864" fill-rule="evenodd" clip-rule="evenodd" d="M107.604 37.936C113.785 37.859 116.124 40.8257 114.621 46.8358C112.894 49.543 110.441 50.5128 107.261 49.7453C103.75 48.3566 102.438 45.7894 103.325 42.0436C104.081 39.934 105.507 38.5648 107.604 37.936ZM108.631 40.6744C110.751 40.8552 112.006 41.996 112.396 44.0974C111.686 46.6766 110.089 47.5324 107.604 46.6646C105.242 44.2179 105.585 42.2213 108.631 40.6744Z" fill="#D11116"/>
<path opacity="0.827" fill-rule="evenodd" clip-rule="evenodd" d="M113.081 38.2766C115.873 37.8806 118.726 37.8237 121.639 38.1055C119.448 39.8039 118.421 42.0289 118.558 44.7803C117.759 44.7803 116.96 44.7803 116.162 44.7803C116.322 42.021 115.295 39.8532 113.081 38.2766Z" fill="#D11116"/>
<path opacity="0.859" fill-rule="evenodd" clip-rule="evenodd" d="M123.695 37.9362C127.494 37.3522 130.061 38.8358 131.397 42.3861C131.792 48.1511 129.111 50.6043 123.353 49.7455C119.96 48.0371 118.762 45.3559 119.759 41.7015C120.593 39.8962 121.905 38.6413 123.695 37.9362ZM125.064 40.6746C127.93 41.0398 129.014 42.6373 128.316 45.4668C126.93 47.3415 125.276 47.6267 123.353 46.3225C121.703 43.7491 122.274 41.8665 125.064 40.6746Z" fill="#D11116"/>
<path opacity="0.863" fill-rule="evenodd" clip-rule="evenodd" d="M155.182 37.9362C158.981 37.3522 161.548 38.8358 162.883 42.3861C163.279 48.1511 160.597 50.6043 154.839 49.7455C151.433 48.0118 150.235 45.3305 151.245 41.7015C152.071 39.9051 153.383 38.6502 155.182 37.9362ZM156.551 40.6746C159.451 41.1244 160.535 42.7215 159.803 45.4668C158.417 47.3415 156.763 47.6267 154.839 46.3225C153.181 43.7631 153.752 41.8805 156.551 40.6746Z" fill="#D11116"/>
<path opacity="0.746" fill-rule="evenodd" clip-rule="evenodd" d="M11.7608 42.7281C13.8062 42.6107 14.3767 43.4093 13.4723 45.1242C12.2412 45.6496 11.4425 45.2505 11.0762 43.9261C11.3517 43.5451 11.5799 43.146 11.7608 42.7281Z" fill="#D11116"/>
<path opacity="0.732" fill-rule="evenodd" clip-rule="evenodd" d="M27.5054 42.7297C29.4268 42.2433 30.1685 42.9278 29.7304 44.7834C29.0292 45.5663 28.2876 45.6234 27.5054 44.9546C27.1271 44.2289 27.1271 43.4872 27.5054 42.7297Z" fill="#D11116"/>
<path opacity="0.746" fill-rule="evenodd" clip-rule="evenodd" d="M108.289 42.7281C110.335 42.6107 110.905 43.4093 110.001 45.1242C108.77 45.6496 107.971 45.2505 107.604 43.9261C107.88 43.5451 108.108 43.146 108.289 42.7281Z" fill="#D11116"/>
<path opacity="0.732" fill-rule="evenodd" clip-rule="evenodd" d="M124.375 42.7297C126.297 42.2433 127.039 42.9278 126.6 44.7834C125.899 45.5663 125.158 45.6234 124.375 44.9546C123.997 44.2289 123.997 43.4872 124.375 42.7297Z" fill="#D11116"/>
<path opacity="0.746" fill-rule="evenodd" clip-rule="evenodd" d="M156.21 42.7299C158.334 42.6662 158.79 43.5219 157.579 45.2971C155.632 45.2252 155.176 44.3695 156.21 42.7299Z" fill="#D11116"/>
</svg>
