<svg width="50" height="50" viewBox="0 0 50 50" fill="none" xmlns="http://www.w3.org/2000/svg">
<rect x="1" y="1" width="48" height="48" rx="24" stroke="#D11116" strokeWidth="2"/>
<path opacity="0.969" fill-rule="evenodd" clip-rule="evenodd" d="M30.8415 14.1773C30.4495 14.1529 30.0645 14.189 29.6866 14.2856C26.0322 17.3382 22.3991 20.418 18.7872 23.5248C17.8762 24.2829 17.7559 25.149 18.4263 26.1233C22.0835 29.2512 25.7406 32.3791 29.3978 35.5069C29.9374 35.8466 30.5148 35.9188 31.1302 35.7234C32.0248 35.1315 32.2294 34.3495 31.7437 33.3775C28.5182 30.573 25.2821 27.7821 22.0353 25.0045C25.2349 22.2022 28.447 19.4111 31.6715 16.6315C32.1746 15.5297 31.8978 14.7116 30.8415 14.1773Z" fill="#D11116"/>
</svg>
