<svg width="103" height="482" viewBox="0 0 103 482" fill="none" xmlns="http://www.w3.org/2000/svg">
<path d="M49.9318 110.299L58.6104 115.306V105.264L49.9318 110.299Z" fill="#D11116"/>
<path d="M85.6991 112.459L89.4551 110.297L85.6991 108.106V112.459Z" fill="#D11116"/>
<path d="M-12.5534 120.314L4.80371 110.3L-12.5534 100.257V120.314Z" fill="#D11116"/>
<path d="M-2.39578 83.2424L14.4775 92.9722V73.5127L-2.39578 83.2424Z" fill="#D11116"/>
<path d="M36.2743 89.8432L47.7129 83.2429L36.2743 76.6426V89.8432Z" fill="#D11116"/>
<path d="M101.776 83.2433L102.971 83.9261V82.5605L101.776 83.2433Z" fill="#D11116"/>
<path d="M-11.8422 64.9773L3.38086 56.1864L-11.8422 47.3955V64.9773Z" fill="#D11116"/>
<path d="M51.8389 56.1871L57.6436 59.5442V52.8301L51.8389 56.1871Z" fill="#D11116"/>
<path d="M86.4668 57.0124L87.918 56.1873L86.4668 55.3623V57.0124Z" fill="#D11116"/>
<path d="M3.29587 29.1312L11.6045 33.9392V24.3232L3.29587 29.1312Z" fill="#D11116"/>
<path d="M38.5219 31.8332L43.2168 29.1305L38.5219 26.4277V31.8332Z" fill="#D11116"/>
<path d="M49.9318 230.613L58.6104 235.62V225.577L49.9318 230.613Z" fill="#D11116"/>
<path d="M85.6991 232.773L89.4551 230.611L85.6991 228.42V232.773Z" fill="#D11116"/>
<path d="M-12.5534 240.627L4.80371 230.613L-12.5534 220.57V240.627Z" fill="#D11116"/>
<path d="M-2.39578 203.556L14.4775 213.286V193.826L-2.39578 203.556Z" fill="#D11116"/>
<path d="M36.2743 210.157L47.7129 203.556L36.2743 196.956V210.157Z" fill="#D11116"/>
<path d="M101.776 203.557L102.971 204.24V202.874L101.776 203.557Z" fill="#D11116"/>
<path d="M-11.8422 185.291L3.38086 176.5L-11.8422 167.709V185.291Z" fill="#D11116"/>
<path d="M51.8389 176.501L57.6436 179.858V173.144L51.8389 176.501Z" fill="#D11116"/>
<path d="M86.4668 177.326L87.918 176.501L86.4668 175.676V177.326Z" fill="#D11116"/>
<path d="M3.29587 149.445L11.6045 154.253V144.637L3.29587 149.445Z" fill="#D11116"/>
<path d="M38.5219 152.147L43.2168 149.444L38.5219 146.741V152.147Z" fill="#D11116"/>
<path d="M49.9318 350.926L58.6104 355.933V345.891L49.9318 350.926Z" fill="#D11116"/>
<path d="M85.6991 353.086L89.4551 350.924L85.6991 348.733V353.086Z" fill="#D11116"/>
<path d="M-12.5534 360.941L4.80371 350.926L-12.5534 340.884V360.941Z" fill="#D11116"/>
<path d="M-2.39578 323.869L14.4775 333.599V314.14L-2.39578 323.869Z" fill="#D11116"/>
<path d="M36.2743 330.47L47.7129 323.87L36.2743 317.27V330.47Z" fill="#D11116"/>
<path d="M101.776 323.87L102.971 324.553V323.188L101.776 323.87Z" fill="#D11116"/>
<path d="M-11.8422 305.604L3.38086 296.813L-11.8422 288.022V305.604Z" fill="#D11116"/>
<path d="M51.8389 296.814L57.6436 300.171V293.457L51.8389 296.814Z" fill="#D11116"/>
<path d="M86.4668 297.639L87.918 296.814L86.4668 295.989V297.639Z" fill="#D11116"/>
<path d="M3.29587 269.758L11.6045 274.566V264.95L3.29587 269.758Z" fill="#D11116"/>
<path d="M38.5219 272.46L43.2168 269.757L38.5219 267.055V272.46Z" fill="#D11116"/>
<path d="M49.9318 471.24L58.6104 476.247V466.204L49.9318 471.24Z" fill="#D11116"/>
<path d="M85.6991 473.4L89.4551 471.238L85.6991 469.047V473.4Z" fill="#D11116"/>
<path d="M-12.5534 481.254L4.80371 471.24L-12.5534 461.197V481.254Z" fill="#D11116"/>
<path d="M-2.39578 444.183L14.4775 453.913V434.453L-2.39578 444.183Z" fill="#D11116"/>
<path d="M36.2743 450.784L47.7129 444.183L36.2743 437.583V450.784Z" fill="#D11116"/>
<path d="M101.776 444.184L102.971 444.867V443.501L101.776 444.184Z" fill="#D11116"/>
<path d="M-11.8422 425.918L3.38086 417.127L-11.8422 408.336V425.918Z" fill="#D11116"/>
<path d="M51.8389 417.128L57.6436 420.485V413.771L51.8389 417.128Z" fill="#D11116"/>
<path d="M86.4668 417.953L87.918 417.128L86.4668 416.303V417.953Z" fill="#D11116"/>
<path d="M3.29587 390.072L11.6045 394.88V385.264L3.29587 390.072Z" fill="#D11116"/>
<path d="M38.5219 392.774L43.2168 390.071L38.5219 387.368V392.774Z" fill="#D11116"/>
</svg>
