<svg width="16" height="15" viewBox="0 0 16 15" fill="none" xmlns="http://www.w3.org/2000/svg">
<g clip-path="url(#clip0_215_9060)">
<path opacity="0.979" fill-rule="evenodd" clip-rule="evenodd" d="M5.28906 -0.015625C7.09571 -0.015625 8.90233 -0.015625 10.709 -0.015625C11.3293 -0.00196752 11.9445 0.0810403 12.5547 0.233398C14.0081 0.70052 14.931 1.6722 15.3232 3.14844C15.3925 3.4823 15.4462 3.81436 15.4844 4.14453C15.4844 6.3418 15.4844 8.53906 15.4844 10.7363C15.4421 11.6471 15.1736 12.487 14.6787 13.2559C13.9219 14.2376 12.9209 14.7893 11.6758 14.9111C11.3586 14.9337 11.0461 14.9581 10.7383 14.9844C8.92188 14.9844 7.10547 14.9844 5.28906 14.9844C4.34749 14.9923 3.44904 14.7921 2.59375 14.3838C1.30741 13.5824 0.628696 12.4154 0.557617 10.8828C0.531231 10.1946 0.506817 9.51099 0.484375 8.83203C0.484375 7.93358 0.484375 7.03517 0.484375 6.13672C0.507139 5.4773 0.531554 4.81323 0.557617 4.14453C0.597937 2.79024 1.13993 1.69161 2.18359 0.848633C2.72075 0.467946 3.31645 0.223805 3.9707 0.116211C4.41227 0.0481446 4.85172 0.00419943 5.28906 -0.015625ZM5.78711 1.36133C7.27152 1.35644 8.75588 1.36133 10.2402 1.37598C10.7204 1.38091 11.1989 1.41021 11.6758 1.46387C12.8461 1.61887 13.603 2.25852 13.9463 3.38281C14.0279 3.68021 14.0767 3.98293 14.0928 4.29102C14.1514 6.42969 14.1514 8.56836 14.0928 10.707C14.0836 11.7855 13.6295 12.6107 12.7305 13.1826C12.0809 13.482 11.3973 13.6187 10.6797 13.5928C8.70678 13.6461 6.73413 13.6363 4.76172 13.5635C3.12271 13.4576 2.1901 12.5933 1.96387 10.9707C1.93587 10.6196 1.91633 10.2681 1.90527 9.91602C1.88574 8.29493 1.88574 6.67382 1.90527 5.05273C1.88182 4.33789 1.98924 3.64452 2.22754 2.97266C2.63124 2.14285 3.29042 1.64969 4.20508 1.49316C4.7345 1.42005 5.26185 1.37611 5.78711 1.36133Z" fill="#7D7D7D"/>
<path opacity="0.962" fill-rule="evenodd" clip-rule="evenodd" d="M11.8803 2.5625C12.5778 2.57148 12.9244 2.92304 12.9203 3.61719C12.7731 4.20301 12.3971 4.45203 11.7924 4.36426C11.252 4.17708 11.0322 3.80111 11.1332 3.23633C11.2505 2.86 11.4996 2.63539 11.8803 2.5625Z" fill="#7D7D7D"/>
<path opacity="0.975" fill-rule="evenodd" clip-rule="evenodd" d="M7.69124 3.6182C9.26264 3.56644 10.4785 4.19143 11.3387 5.4932C12.16 7.06404 12.0429 8.55818 10.9871 9.97563C9.89855 11.162 8.56555 11.577 6.98811 11.2207C5.33343 10.689 4.39103 9.56108 4.16097 7.83695C4.07059 6.2452 4.69071 5.01962 6.02132 4.1602C6.54453 3.86368 7.10117 3.68301 7.69124 3.6182ZM7.83772 4.99516C6.99843 5.08733 6.34903 5.48773 5.88948 6.19633C5.27489 7.40225 5.45554 8.47158 6.43147 9.40434C7.42522 10.1305 8.44086 10.1598 9.47835 9.49223C10.3049 8.82912 10.6223 7.97462 10.4305 6.92875C10.0398 5.65481 9.17557 5.01027 7.83772 4.99516Z" fill="#7D7D7D"/>
</g>
<defs>
<clipPath id="clip0_215_9060">
<rect width="15" height="15" fill="white" transform="translate(0.5)"/>
</clipPath>
</defs>
</svg>
