<svg width="100" height="100" viewBox="0 0 100 100" fill="none" xmlns="http://www.w3.org/2000/svg">
<rect width="100" height="100" rx="50" fill="#D11116"/>
<g clip-path="url(#clip0_362_2103)">
<path opacity="0.982" fill-rule="evenodd" clip-rule="evenodd" d="M65.5859 36.6035C55.2213 36.5905 44.8567 36.6035 34.4922 36.6426C33.9497 36.6803 33.4548 36.8496 33.0078 37.1504C37.995 40.8219 42.995 44.4807 48.0078 48.127C49.362 49.1166 50.7162 49.1166 52.0703 48.127C57.0831 44.4807 62.0831 40.8219 67.0703 37.1504C66.6073 36.8597 66.1126 36.6774 65.5859 36.6035Z" fill="white"/>
<path opacity="0.988" fill-rule="evenodd" clip-rule="evenodd" d="M31.1328 40.3545C31.0287 43.5702 30.9766 46.8124 30.9766 50.0811C30.9896 53.3232 31.0026 56.5654 31.0156 59.8076C31.3505 61.8353 32.5355 62.9941 34.5703 63.2842C44.8828 63.3363 55.1953 63.3363 65.5078 63.2842C67.5426 62.9941 68.7275 61.8353 69.0625 59.8076C69.1016 53.3493 69.1146 46.891 69.1016 40.4326C68.9603 40.4319 68.8301 40.471 68.7109 40.5498C63.0339 44.6904 57.3568 48.8311 51.6797 52.9717C50.5859 53.6488 49.4922 53.6488 48.3984 52.9717C42.629 48.7766 36.8738 44.5709 31.1328 40.3545Z" fill="white"/>
</g>
<defs>
<clipPath id="clip0_362_2103">
<rect width="40" height="40" fill="white" transform="translate(30 30)"/>
</clipPath>
</defs>
</svg>
