<svg width="40" height="40" viewBox="0 0 40 40" fill="none" xmlns="http://www.w3.org/2000/svg">
<g clip-path="url(#clip0_2064_517)">
<path opacity="0.992" fill-rule="evenodd" clip-rule="evenodd" d="M3.71191 -0.0390625C10.665 -0.0390625 17.6182 -0.0390625 24.5713 -0.0390625C26.6096 0.449845 27.8465 1.72589 28.2822 3.78906C28.3213 7.7994 28.3343 11.8098 28.3213 15.8203C23.6213 15.8582 20.0145 17.8373 17.501 21.7578C15.3579 25.6511 15.2798 29.5834 17.2666 33.5547C17.5369 34.0305 17.8364 34.4862 18.165 34.9219C13.2143 34.9986 8.26637 34.9725 3.32129 34.8438C1.50536 34.2652 0.385571 33.0543 -0.0380859 31.2109C-0.0380859 22.0182 -0.0380859 12.8255 -0.0380859 3.63281C0.491613 1.6708 1.74161 0.446841 3.71191 -0.0390625ZM6.21191 6.67969C8.71207 6.66667 11.2121 6.67969 13.7119 6.71875C14.8778 7.24705 15.1772 8.09344 14.6104 9.25781C14.2716 9.65508 13.8419 9.87641 13.3213 9.92188C10.9228 9.99633 8.52691 9.97031 6.13379 9.84375C4.96819 9.23813 4.7208 8.3657 5.3916 7.22656C5.63801 6.99128 5.91145 6.80899 6.21191 6.67969ZM6.36816 13.3203C11.5505 13.3073 16.7329 13.3203 21.915 13.3594C23.1015 13.7663 23.4791 14.5605 23.0479 15.7422C22.7882 16.178 22.4107 16.4515 21.915 16.5625C16.7328 16.6146 11.5504 16.6146 6.36816 16.5625C5.07177 16.1112 4.72021 15.2648 5.31348 14.0234C5.58912 13.6589 5.94068 13.4245 6.36816 13.3203ZM6.60254 19.9609C9.54793 19.9248 12.4907 19.9639 15.4307 20.0781C16.5899 20.6395 16.8633 21.4859 16.251 22.6172C15.9956 22.8815 15.6961 23.0768 15.3525 23.2031C12.3057 23.2552 9.25879 23.2552 6.21191 23.2031C5.04608 22.6748 4.7466 21.8284 5.31348 20.6641C5.66773 20.2724 6.09741 20.038 6.60254 19.9609Z" fill="#7D7D7D"/>
<path opacity="0.971" fill-rule="evenodd" clip-rule="evenodd" d="M39.9611 37.7733C39.9611 38.1118 39.9611 38.4504 39.9611 38.7889C39.7528 39.3618 39.3621 39.7524 38.7893 39.9608C38.4507 39.9608 38.1121 39.9608 37.7736 39.9608C37.5207 39.8599 37.2864 39.7166 37.0705 39.5311C35.6252 38.0858 34.1799 36.6405 32.7346 35.1952C29.6818 37.0657 26.5698 37.1569 23.3986 35.4686C20.1388 33.3099 18.7456 30.276 19.2189 26.3671C19.9381 22.8875 21.9823 20.5828 25.3518 19.453C28.8355 18.5627 31.8433 19.383 34.3752 21.9139C36.7983 24.8396 37.2932 28.0687 35.8596 31.6014C35.6481 31.9855 35.4267 32.3631 35.1955 32.7342C36.6408 34.1796 38.0861 35.6249 39.5314 37.0702C39.7169 37.286 39.8602 37.5204 39.9611 37.7733ZM27.7736 22.4608C30.5721 22.6432 32.356 24.0754 33.1252 26.7577C33.5359 29.4388 32.5593 31.431 30.1955 32.7342C27.9493 33.6546 25.9181 33.3161 24.1018 31.7186C22.3902 29.8159 22.0647 27.6935 23.1252 25.3514C24.1775 23.5821 25.7269 22.6185 27.7736 22.4608Z" fill="#7D7D7D"/>
</g>
<defs>
<clipPath id="clip0_2064_517">
<rect width="40" height="40" fill="white"/>
</clipPath>
</defs>
</svg>
