<svg width="41" height="40" viewBox="0 0 41 40" fill="none" xmlns="http://www.w3.org/2000/svg">
<g clip-path="url(#clip0_2117_1281)">
<path opacity="0.992" fill-rule="evenodd" clip-rule="evenodd" d="M3.96094 -0.0390625C10.9141 -0.0390625 17.8672 -0.0390625 24.8203 -0.0390625C26.8586 0.449845 28.0955 1.72589 28.5312 3.78906C28.5703 7.7994 28.5834 11.8098 28.5703 15.8203C23.8703 15.8582 20.2635 17.8373 17.75 21.7578C15.607 25.6511 15.5288 29.5834 17.5156 33.5547C17.7859 34.0305 18.0855 34.4862 18.4141 34.9219C13.4633 34.9986 8.51539 34.9725 3.57031 34.8438C1.75438 34.2652 0.634595 33.0543 0.210938 31.2109C0.210938 22.0182 0.210938 12.8255 0.210938 3.63281C0.740637 1.6708 1.99063 0.446841 3.96094 -0.0390625ZM6.46094 6.67969C8.96109 6.66667 11.4611 6.67969 13.9609 6.71875C15.1268 7.24705 15.4263 8.09344 14.8594 9.25781C14.5206 9.65508 14.0909 9.87641 13.5703 9.92188C11.1718 9.99633 8.77594 9.97031 6.38281 9.84375C5.21721 9.23813 4.96982 8.3657 5.64062 7.22656C5.88703 6.99128 6.16047 6.80899 6.46094 6.67969ZM6.61719 13.3203C11.7995 13.3073 16.9819 13.3203 22.1641 13.3594C23.3505 13.7663 23.7281 14.5605 23.2969 15.7422C23.0373 16.178 22.6597 16.4515 22.1641 16.5625C16.9818 16.6146 11.7995 16.6146 6.61719 16.5625C5.3208 16.1112 4.96923 15.2648 5.5625 14.0234C5.83814 13.6589 6.1897 13.4245 6.61719 13.3203ZM6.85156 19.9609C9.79695 19.9248 12.7397 19.9639 15.6797 20.0781C16.8389 20.6395 17.1123 21.4859 16.5 22.6172C16.2446 22.8815 15.9451 23.0768 15.6016 23.2031C12.5547 23.2552 9.50781 23.2552 6.46094 23.2031C5.2951 22.6748 4.99563 21.8284 5.5625 20.6641C5.91675 20.2724 6.34644 20.038 6.85156 19.9609Z" fill="white"/>
<path opacity="0.971" fill-rule="evenodd" clip-rule="evenodd" d="M40.2111 37.7733C40.2111 38.1118 40.2111 38.4504 40.2111 38.7889C40.0028 39.3618 39.6121 39.7524 39.0393 39.9608C38.7007 39.9608 38.3621 39.9608 38.0236 39.9608C37.7707 39.8599 37.5364 39.7166 37.3205 39.5311C35.8752 38.0858 34.4299 36.6405 32.9846 35.1952C29.9318 37.0657 26.8198 37.1569 23.6486 35.4686C20.3888 33.3099 18.9956 30.276 19.4689 26.3671C20.1881 22.8875 22.2323 20.5828 25.6018 19.453C29.0855 18.5627 32.0933 19.383 34.6252 21.9139C37.0483 24.8396 37.5432 28.0687 36.1096 31.6014C35.8981 31.9855 35.6767 32.3631 35.4455 32.7342C36.8908 34.1796 38.3361 35.6249 39.7814 37.0702C39.9669 37.286 40.1102 37.5204 40.2111 37.7733ZM28.0236 22.4608C30.8221 22.6432 32.606 24.0754 33.3752 26.7577C33.7859 29.4388 32.8093 31.431 30.4455 32.7342C28.1993 33.6546 26.1681 33.3161 24.3518 31.7186C22.6402 29.8159 22.3147 27.6935 23.3752 25.3514C24.4275 23.5821 25.9769 22.6185 28.0236 22.4608Z" fill="white"/>
</g>
<defs>
<clipPath id="clip0_2117_1281">
<rect width="40" height="40" fill="white" transform="translate(0.25)"/>
</clipPath>
</defs>
</svg>
