<svg width="101" height="100" viewBox="0 0 101 100" fill="none" xmlns="http://www.w3.org/2000/svg">
<g clip-path="url(#clip0_227_9842)">
<path opacity="0.968" fill-rule="evenodd" clip-rule="evenodd" d="M100.402 44.043C100.402 46.2565 100.402 48.4702 100.402 50.6836C98.8492 50.4682 97.2867 50.4356 95.7148 50.586C93.7041 51.251 92.6625 52.6506 92.5898 54.7852C92.7664 56.7305 93.743 58.1303 95.5195 58.9844C97.076 59.7721 98.7037 60.0651 100.402 59.8633C100.402 61.1002 100.402 62.3374 100.402 63.5743C99.983 64.4163 99.332 65.0348 98.4492 65.4297C96.432 65.5274 94.4139 65.5598 92.3945 65.5274C91.1908 60.0928 87.8055 57.1631 82.2383 56.7383C76.7264 57.2151 73.3408 60.1448 72.082 65.5274C59.1264 65.5274 46.1705 65.5274 33.2148 65.5274C32.0096 60.0909 28.624 57.1612 23.0586 56.7383C17.4931 57.1612 14.1077 60.0909 12.9023 65.5274C9.38611 65.56 5.87049 65.5274 2.35547 65.4297C1.47266 65.0348 0.821621 64.4163 0.402344 63.5743C0.402344 61.0352 0.402344 58.4961 0.402344 55.9571C0.941617 54.8018 1.85307 54.1182 3.13672 53.9063C27.9414 53.8413 52.7461 53.776 77.5508 53.711C77.974 53.5483 78.267 53.2553 78.4297 52.8321C78.4947 44.629 78.56 36.4258 78.625 28.2227C78.8158 26.8606 79.5645 25.9817 80.8711 25.586C84.2564 25.4557 87.642 25.4557 91.0273 25.586C92.5902 25.9772 93.6645 26.9211 94.25 28.418C96.3641 33.6249 98.4148 38.8331 100.402 44.043ZM86.1445 28.6133C88.0336 28.5809 89.9217 28.6133 91.8086 28.711C92.7523 29.3301 92.9803 30.1438 92.4922 31.1524C92.1406 31.5073 91.7176 31.7352 91.2227 31.836C89.5299 31.901 87.8373 31.9663 86.1445 32.0313C85.9818 32.194 85.8189 32.3569 85.6562 32.5196C85.526 35.7096 85.526 38.8999 85.6562 42.0899C85.9139 42.478 86.2719 42.7059 86.7305 42.7735C90.3764 42.8385 94.0221 42.9038 97.668 42.9688C98.9701 43.9454 98.9701 44.9219 97.668 45.8985C94.1523 46.0288 90.6367 46.0288 87.1211 45.8985C84.7617 45.6157 83.2316 44.3461 82.5312 42.0899C82.401 38.7696 82.401 35.4493 82.5312 32.129C83.2033 30.3823 84.4078 29.2104 86.1445 28.6133ZM83.2148 48.1446C84.5662 47.9665 85.315 48.5524 85.4609 49.9024C85.6207 51.1528 85.5555 52.3897 85.2656 53.6133C84.7574 54.3383 84.0738 54.5661 83.2148 54.2969C82.7916 54.1342 82.4986 53.8413 82.3359 53.418C82.2057 51.9858 82.2057 50.5534 82.3359 49.1211C82.6027 48.7575 82.8957 48.4321 83.2148 48.1446Z" fill="#D11116"/>
<path opacity="0.977" fill-rule="evenodd" clip-rule="evenodd" d="M30.0898 29.9808C33.4781 29.607 36.5379 30.4209 39.2695 32.4222C40.767 33.6591 42.2643 34.8963 43.7617 36.1332C45.9182 37.7574 48.3271 38.2457 50.9883 37.598C56.8246 37.5867 62.3584 38.8562 67.5898 41.4066C67.7447 41.6185 67.875 41.8464 67.9805 42.0902C67.8549 43.9724 67.7246 45.8605 67.5898 47.7543C66.4299 47.9412 65.258 48.0062 64.0742 47.9496C63.6328 43.7648 61.3217 41.4211 57.1406 40.9183C52.7432 41.4459 50.432 43.9197 50.207 48.3402C42.2643 48.3402 34.3217 48.3402 26.3789 48.3402C26.1539 43.9197 23.8428 41.4459 19.4453 40.9183C15.0805 41.4746 12.7694 43.9484 12.5117 48.3402C11.8574 48.3724 11.2064 48.3398 10.5586 48.2425C8.59178 47.3082 6.67119 46.299 4.79688 45.2152C4.61314 44.4382 4.45037 43.657 4.30859 42.8714C4.89355 41.9904 5.44693 41.0789 5.96875 40.1371C6.18451 39.1556 6.41238 38.1791 6.65234 37.2074C6.75494 37.0722 6.88514 36.9746 7.04297 36.9144C8.48746 36.8849 9.91975 36.7547 11.3398 36.5238C14.6418 35.1334 17.897 33.6359 21.1055 32.0316C24.0049 30.808 26.9998 30.1244 30.0898 29.9808Z" fill="#D11116"/>
<path opacity="0.942" fill-rule="evenodd" clip-rule="evenodd" d="M18.5664 44.0426C20.7734 43.8273 22.3033 44.7388 23.1562 46.7769C23.5142 50.3252 21.9193 51.9201 18.3711 51.5621C15.7059 50.2724 15.0223 48.2869 16.3203 45.6051C16.9354 44.8607 17.6842 44.34 18.5664 44.0426Z" fill="#D11116"/>
<path opacity="0.942" fill-rule="evenodd" clip-rule="evenodd" d="M56.0666 44.0426C59.8377 44.0039 61.3675 45.827 60.6564 49.5113C59.2955 51.6791 57.44 52.2324 55.09 51.1715C53.2757 49.7369 52.8527 47.9465 53.8205 45.8004C54.4421 45.0117 55.1908 44.4258 56.0666 44.0426Z" fill="#D11116"/>
<path opacity="0.907" fill-rule="evenodd" clip-rule="evenodd" d="M100.403 54.004C100.403 54.7852 100.403 55.5665 100.403 56.3477C99.0496 56.8924 97.7475 56.7297 96.4963 55.8594C95.5543 55.195 95.4891 54.4788 96.301 53.711C97.5379 53.5807 98.775 53.5807 100.012 53.711C100.118 53.851 100.248 53.9487 100.403 54.004Z" fill="#D11116"/>
<path opacity="0.969" fill-rule="evenodd" clip-rule="evenodd" d="M21.4958 60.0585C26.1052 59.5456 29.0675 61.4988 30.3825 65.9179C30.7073 70.1499 28.8519 72.9167 24.8161 74.2187C20.4839 74.7386 17.5867 72.9482 16.1247 68.8476C15.4449 64.3394 17.2352 61.4097 21.4958 60.0585Z" fill="#D11116"/>
<path opacity="0.968" fill-rule="evenodd" clip-rule="evenodd" d="M80.6753 60.0583C86.9207 59.6956 89.8828 62.6253 89.5621 68.8473C88.2298 72.9772 85.3978 74.8327 81.066 74.4138C76.731 73.1356 74.8105 70.2384 75.3042 65.7223C76.1337 62.9075 77.9242 61.0194 80.6753 60.0583Z" fill="#D11116"/>
</g>
<defs>
<clipPath id="clip0_227_9842">
<rect width="100" height="100" fill="white" transform="translate(0.5)"/>
</clipPath>
</defs>
</svg>
