<svg width="70" height="70" viewBox="0 0 70 70" fill="none" xmlns="http://www.w3.org/2000/svg">
<g clip-path="url(#clip0_2117_651)">
<path opacity="0.968" fill-rule="evenodd" clip-rule="evenodd" d="M69.9316 30.8301C69.9316 32.3795 69.9316 33.9291 69.9316 35.4785C68.8445 35.3277 67.7507 35.3049 66.6504 35.4102C65.2429 35.8757 64.5137 36.8554 64.4629 38.3496C64.5865 39.7114 65.2701 40.6912 66.5137 41.2891C67.6032 41.8405 68.7426 42.0456 69.9316 41.9043C69.9316 42.7702 69.9316 43.6361 69.9316 44.502C69.6381 45.0914 69.1824 45.5244 68.5645 45.8008C67.1524 45.8692 65.7397 45.8919 64.3262 45.8692C63.4836 42.065 61.1138 40.0142 57.2168 39.7168C53.3585 40.0506 50.9886 42.1013 50.1074 45.8692C41.0385 45.8692 31.9694 45.8692 22.9004 45.8692C22.0567 42.0636 19.6868 40.0128 15.791 39.7168C11.8952 40.0128 9.5254 42.0636 8.68164 45.8692C6.22028 45.892 3.75934 45.8692 1.29883 45.8008C0.680865 45.5244 0.225135 45.0914 -0.0683594 44.502C-0.0683594 42.7246 -0.0683594 40.9473 -0.0683594 39.17C0.309132 38.3613 0.947152 37.8827 1.8457 37.7344C19.209 37.6889 36.5723 37.6432 53.9355 37.5977C54.2318 37.4838 54.4369 37.2787 54.5508 36.9825C54.5963 31.2403 54.642 25.4981 54.6875 19.7559C54.8211 18.8024 55.3451 18.1872 56.2598 17.9102C58.6295 17.819 60.9994 17.819 63.3691 17.9102C64.4632 18.184 65.2151 18.8448 65.625 19.8926C67.1048 23.5374 68.5404 27.1831 69.9316 30.8301ZM59.9512 20.0293C61.2735 20.0066 62.5952 20.0293 63.916 20.0977C64.5766 20.5311 64.7362 21.1007 64.3945 21.8067C64.1484 22.0551 63.8523 22.2146 63.5059 22.2852C62.3209 22.3307 61.1361 22.3764 59.9512 22.4219C59.8373 22.5358 59.7233 22.6498 59.6094 22.7637C59.5182 24.9967 59.5182 27.2299 59.6094 29.4629C59.7897 29.7346 60.0403 29.8941 60.3613 29.9414C62.9135 29.987 65.4654 30.0326 68.0176 30.0782C68.9291 30.7618 68.9291 31.4453 68.0176 32.1289C65.5566 32.2201 63.0957 32.2201 60.6348 32.1289C58.9832 31.931 57.9121 31.0423 57.4219 29.4629C57.3307 27.1387 57.3307 24.8145 57.4219 22.4903C57.8923 21.2676 58.7355 20.4473 59.9512 20.0293ZM57.9004 33.7012C58.8463 33.5765 59.3705 33.9867 59.4727 34.9317C59.5845 35.8069 59.5388 36.6728 59.3359 37.5293C58.9802 38.0368 58.5017 38.1962 57.9004 38.0078C57.6041 37.894 57.399 37.6889 57.2852 37.3926C57.194 36.3901 57.194 35.3874 57.2852 34.3848C57.4719 34.1302 57.677 33.9025 57.9004 33.7012Z" fill="#D11116"/>
<path opacity="0.977" fill-rule="evenodd" clip-rule="evenodd" d="M20.7129 20.9866C23.0847 20.7249 25.2265 21.2946 27.1387 22.6956C28.1869 23.5614 29.235 24.4274 30.2832 25.2932C31.7927 26.4302 33.479 26.772 35.3418 26.3186C39.4272 26.3107 43.3009 27.1994 46.9629 28.9846C47.0713 29.133 47.1625 29.2925 47.2363 29.4631C47.1484 30.7807 47.0572 32.1024 46.9629 33.428C46.1509 33.5588 45.3306 33.6044 44.502 33.5647C44.193 30.6354 42.5752 28.9947 39.6484 28.6428C36.5702 29.0121 34.9524 30.7438 34.7949 33.8381C29.235 33.8381 23.6752 33.8381 18.1152 33.8381C17.9577 30.7438 16.3399 29.0121 13.2617 28.6428C10.2064 29.0322 8.58855 30.7639 8.4082 33.8381C7.95021 33.8607 7.49448 33.8379 7.04102 33.7698C5.66424 33.1157 4.31983 32.4093 3.00781 31.6506C2.8792 31.1068 2.76526 30.5599 2.66602 30.01C3.07549 29.3933 3.46285 28.7552 3.82812 28.096C3.97916 27.4089 4.13867 26.7253 4.30664 26.0452C4.37846 25.9506 4.4696 25.8822 4.58008 25.8401C5.59122 25.8194 6.59382 25.7283 7.58789 25.5667C9.89924 24.5934 12.1779 23.5451 14.4238 22.4221C16.4534 21.5656 18.5499 21.0871 20.7129 20.9866Z" fill="#D11116"/>
<path opacity="0.942" fill-rule="evenodd" clip-rule="evenodd" d="M12.6466 30.8302C14.1915 30.6795 15.2624 31.3176 15.8595 32.7442C16.1101 35.228 14.9936 36.3445 12.5098 36.0939C10.6442 35.1911 10.1657 33.8012 11.0743 31.9239C11.5049 31.4029 12.029 31.0384 12.6466 30.8302Z" fill="#D11116"/>
<path opacity="0.942" fill-rule="evenodd" clip-rule="evenodd" d="M38.8965 30.8305C41.5363 30.8034 42.6072 32.0796 42.1094 34.6586C41.1567 36.1761 39.8579 36.5634 38.2129 35.8207C36.9429 34.8165 36.6468 33.5632 37.3242 32.061C37.7594 31.5089 38.2834 31.0987 38.8965 30.8305Z" fill="#D11116"/>
<path opacity="0.907" fill-rule="evenodd" clip-rule="evenodd" d="M69.9317 37.8028C69.9317 38.3496 69.9317 38.8965 69.9317 39.4434C68.9846 39.8247 68.0731 39.7108 67.1973 39.1016C66.5379 38.6365 66.4923 38.1351 67.0606 37.5977C67.9264 37.5065 68.7924 37.5065 69.6583 37.5977C69.7326 37.6957 69.8238 37.7641 69.9317 37.8028Z" fill="#D11116"/>
<path opacity="0.969" fill-rule="evenodd" clip-rule="evenodd" d="M14.6969 42.0414C17.9234 41.6823 19.997 43.0495 20.9176 46.1429C21.1449 49.1053 19.8461 51.0421 17.0211 51.9535C13.9885 52.3174 11.9605 51.0641 10.9371 48.1937C10.4612 45.038 11.7145 42.9872 14.6969 42.0414Z" fill="#D11116"/>
<path opacity="0.968" fill-rule="evenodd" clip-rule="evenodd" d="M56.1233 42.0415C60.495 41.7876 62.5685 43.8384 62.344 48.1938C61.4115 51.0847 59.429 52.3836 56.3968 52.0903C53.3623 51.1956 52.0179 49.1675 52.3636 46.0063C52.9442 44.0359 54.1975 42.7143 56.1233 42.0415Z" fill="#D11116"/>
</g>
<defs>
<clipPath id="clip0_2117_651">
<rect width="70" height="70" fill="white"/>
</clipPath>
</defs>
</svg>
