<svg width="18" height="19" viewBox="0 0 18 19" fill="none" xmlns="http://www.w3.org/2000/svg">
<g clip-path="url(#clip0_377_2971)">
<path opacity="0.992" fill-rule="evenodd" clip-rule="evenodd" d="M8.41964 0.482422C8.79465 0.482422 9.16963 0.482422 9.54464 0.482422C11.5809 0.81316 12.9226 1.9616 13.57 3.92773C14.0283 5.86885 13.5303 7.51536 12.0759 8.86719C10.6214 10.0059 9.01596 10.2754 7.25948 9.67578C5.53211 8.94425 4.53016 7.64934 4.25362 5.79102C4.10312 3.75413 4.88243 2.18968 6.59151 1.09766C7.1686 0.782257 7.77797 0.577179 8.41964 0.482422Z" fill="#D11116"/>
<path opacity="0.995" fill-rule="evenodd" clip-rule="evenodd" d="M16.576 18.4821C11.5135 18.4821 6.45104 18.4821 1.38854 18.4821C1.24866 18.4183 1.14905 18.3128 1.08971 18.1657C1.05576 15.6613 2.04599 13.675 4.06041 12.2067C5.55522 11.2313 7.19586 10.8388 8.98229 11.029C12.0646 10.7684 14.4142 11.9403 16.0311 14.5446C16.6573 15.6718 16.9386 16.8788 16.8749 18.1657C16.8155 18.3128 16.7159 18.4183 16.576 18.4821Z" fill="#D11116"/>
</g>
<defs>
<clipPath id="clip0_377_2971">
<rect width="18" height="18" fill="white" transform="translate(0 0.5)"/>
</clipPath>
</defs>
</svg>
