<svg width="42" height="50" viewBox="0 0 42 50" fill="none" xmlns="http://www.w3.org/2000/svg">
<path opacity="0.977" fill-rule="evenodd" clip-rule="evenodd" d="M10.5023 0.829729C5.70289 0.602855 2.52906 2.75129 0.98082 7.27504C0.605042 8.76141 0.670177 10.2262 1.17613 11.6696C2.22213 13.975 3.57301 16.0747 5.22887 17.9684C1.48668 23.7365 0.754257 29.8725 3.0316 36.3766C6.20895 43.8159 11.8242 48.0314 19.8773 49.0231C27.2026 49.3877 33.1108 46.7022 37.6019 40.9664C41.5389 35.184 42.3853 28.9665 40.141 22.3141C37.4453 15.68 32.6113 11.5296 25.639 9.86293C23.1005 9.3123 20.5614 9.29602 18.0218 9.8141C17.9666 5.81391 16.1111 2.99816 12.4554 1.36684C11.8004 1.15454 11.1493 0.975504 10.5023 0.829729ZM10.2093 2.09926C6.20523 1.97589 3.55231 3.79881 2.25035 7.56801C1.86002 8.93946 1.95768 10.2741 2.54332 11.5719C3.09586 12.743 3.74693 13.8497 4.49644 14.8922C5.93336 16.753 7.47965 18.5271 9.13512 20.2145C9.29791 20.2796 9.46061 20.2796 9.6234 20.2145C11.5815 18.2248 13.3556 16.0927 14.9457 13.818C15.6835 12.7003 16.2369 11.4958 16.6058 10.2047C16.7873 6.54808 15.2085 3.99274 11.8695 2.53871C11.3077 2.37404 10.7544 2.22755 10.2093 2.09926ZM21.9281 10.693C20.4803 10.7275 19.048 10.8903 17.6312 11.1813C17.0524 12.8762 16.206 14.4224 15.0921 15.82C15.2535 16.457 15.3511 17.108 15.3851 17.7731C15.0259 20.3664 14.6353 22.9543 14.2132 25.5368C14.323 27.7382 15.0229 29.7239 16.3129 31.4938C17.1266 32.3727 17.9405 33.2516 18.7543 34.1305C19.2586 35.0565 19.5027 36.0494 19.4867 37.109C19.3792 40.7858 18.1748 44.041 15.8734 46.8746C22.5883 48.826 28.6105 47.5565 33.9398 43.0661C32.4566 43.0047 31.0894 42.5815 29.8382 41.7965C29.3624 41.3816 29.0206 40.877 28.8129 40.2829C28.6442 39.4428 28.514 38.5964 28.4222 37.7438C28.264 37.1192 27.9222 36.6147 27.3968 36.2301C26.4692 35.6197 25.5252 35.0337 24.5648 34.4723C23.856 33.959 23.2864 33.3243 22.8558 32.568C22.2707 30.4016 23.0356 28.9531 25.1507 28.2223C26.0329 28.0394 26.9118 27.8441 27.7875 27.6364C29.6132 26.7345 30.5573 25.2535 30.6195 23.193C30.4139 21.9087 30.1373 20.6392 29.7894 19.3844C29.7154 18.7603 29.748 18.1418 29.8871 17.5289C30.1063 16.9921 30.3993 16.5038 30.766 16.0641C31.2851 15.4635 31.8222 14.8776 32.3773 14.3063C29.2675 12.0327 25.7844 10.8283 21.9281 10.693Z" fill="white"/>
</svg>
