<svg width="16" height="16" viewBox="0 0 16 16" fill="none" xmlns="http://www.w3.org/2000/svg">
<g clip-path="url(#clip0_215_4663)">
<path opacity="0.951" fill-rule="evenodd" clip-rule="evenodd" d="M7.29688 -0.015625C7.75522 -0.015625 8.21353 -0.015625 8.67188 -0.015625C9.62097 0.0784909 10.5272 0.3337 11.3906 0.75C11.3698 0.760416 11.349 0.770834 11.3281 0.78125C10.982 0.786806 10.6383 0.765972 10.2969 0.71875C10.1198 0.833334 9.94272 0.947916 9.76563 1.0625C9.64081 1.21855 9.50541 1.36438 9.35938 1.5C8.88959 1.53865 8.42084 1.58552 7.95313 1.64062C7.75659 1.59393 7.55869 1.56789 7.35938 1.5625C7.22822 1.751 7.10322 1.94371 6.98438 2.14062C6.31706 2.29324 5.66603 2.25157 5.03125 2.01562C4.82569 2.14794 4.61216 2.26773 4.39063 2.375C3.90097 2.44793 3.41138 2.52084 2.92188 2.59375C2.55049 2.70088 2.18069 2.81026 1.8125 2.92188C1.79167 2.90104 1.79167 2.88021 1.8125 2.85938C3.25475 1.17203 5.08288 0.2137 7.29688 -0.015625ZM9.10938 0.359375C9.28447 0.436541 9.45113 0.530291 9.60938 0.640625C9.39063 0.8125 9.17188 0.984375 8.95313 1.15625C8.72788 1.21112 8.49872 1.24758 8.26563 1.26562C8.12831 1.22298 8.00331 1.15527 7.89063 1.0625C8.29406 0.819906 8.70031 0.585531 9.10938 0.359375ZM6.70313 0.859375C6.7935 0.987566 6.87684 1.12298 6.95313 1.26562C6.61831 1.37147 6.27978 1.46522 5.9375 1.54688C5.76016 1.4712 5.58828 1.38266 5.42188 1.28125C5.59409 1.1506 5.76597 1.02039 5.9375 0.890625C6.04859 0.927953 6.15797 0.969619 6.26563 1.01562C6.41894 0.975012 6.56478 0.922928 6.70313 0.859375Z" fill="#6B6060"/>
<path opacity="0.98" fill-rule="evenodd" clip-rule="evenodd" d="M15.9844 7.29688C15.9844 7.76562 15.9844 8.23438 15.9844 8.70312C15.6673 11.3123 14.4173 13.3383 12.2344 14.7812C11.5044 15.2295 10.7232 15.5576 9.89062 15.7656C9.88022 15.7448 9.86978 15.724 9.85938 15.7031C9.90309 15.5356 9.94997 15.3689 10 15.2031C10.4637 14.8983 10.9221 14.5858 11.375 14.2656C11.4957 13.9555 11.6103 13.643 11.7188 13.3281C12.0417 13.1719 12.3646 13.0156 12.6875 12.8594C12.9782 12.304 13.2647 11.7467 13.5469 11.1875C13.1051 10.9092 12.6571 10.6383 12.2031 10.375C11.9519 10.1134 11.7123 9.84262 11.4844 9.5625C11.0105 9.48309 10.5417 9.37894 10.0781 9.25C9.89162 9.21666 9.70412 9.19063 9.51562 9.17188C9.27525 9.22425 9.03566 9.27112 8.79688 9.3125C8.68809 9.17766 8.57353 9.04744 8.45312 8.92188C8.30631 8.86447 8.1605 8.80719 8.01562 8.75C8.04609 8.57059 8.0565 8.38828 8.04688 8.20312C7.90066 8.19794 7.75484 8.20316 7.60938 8.21875C7.5245 8.32066 7.43597 8.41962 7.34375 8.51562C7.26894 8.31403 7.21162 8.10569 7.17188 7.89062C7.17525 7.86119 7.18566 7.83516 7.20312 7.8125C7.39731 7.71481 7.59522 7.62628 7.79688 7.54688C8.00866 7.62672 8.217 7.71525 8.42188 7.8125C8.53784 7.83828 8.65244 7.83309 8.76562 7.79688C8.81247 7.63037 8.85934 7.46372 8.90625 7.29688C9.21809 6.91728 9.53581 6.54228 9.85938 6.17188C10.2865 5.95834 10.7135 5.74478 11.1406 5.53125C11.413 5.53516 11.6839 5.56122 11.9531 5.60938C11.9747 5.48469 11.9799 5.35969 11.9688 5.23438C11.678 4.91237 11.3759 4.59987 11.0625 4.29688C10.9467 4.06006 10.8269 3.82569 10.7031 3.59375C10.5156 3.58334 10.3281 3.57291 10.1406 3.5625C10.0573 3.51041 9.97397 3.45834 9.89062 3.40625C9.68412 3.35969 9.47581 3.32322 9.26562 3.29688C9.21894 3.30341 9.18247 3.32425 9.15625 3.35938C9.12097 3.60766 9.07409 3.85247 9.01562 4.09375C8.72234 4.06534 8.43069 4.01847 8.14062 3.95312C8.11978 3.76562 8.09897 3.57812 8.07812 3.39062C8.29584 3.344 8.51459 3.30234 8.73438 3.26562C8.8 2.96354 8.86772 2.66146 8.9375 2.35938C8.95503 2.34307 8.97588 2.33265 9 2.32812C9.20438 2.40841 9.4075 2.49174 9.60938 2.57812C9.60609 2.71099 9.6165 2.84641 9.64062 2.98438C9.88578 3.10602 10.141 3.19978 10.4062 3.26562C10.5377 3.21816 10.6575 3.15044 10.7656 3.0625C10.4399 2.6742 10.091 2.30441 9.71875 1.95312C9.71928 1.82889 9.7245 1.70389 9.73438 1.57812C10.0071 1.62538 10.2779 1.68267 10.5469 1.75C10.759 1.93187 10.9621 2.12458 11.1562 2.32812C11.2956 2.64192 11.4102 2.96483 11.5 3.29688C11.8375 3.58219 12.1656 3.87906 12.4844 4.1875C12.5778 4.23509 12.6716 4.25072 12.7656 4.23438C12.8841 4.06519 12.9987 3.89331 13.1094 3.71875C13.5356 3.66847 13.9626 3.62681 14.3906 3.59375C14.4736 3.55891 14.5569 3.53806 14.6406 3.53125C15.3959 4.67737 15.8438 5.93259 15.9844 7.29688Z" fill="#6B6060"/>
<path opacity="0.99" fill-rule="evenodd" clip-rule="evenodd" d="M8.60938 15.9844C8.17188 15.9844 7.73438 15.9844 7.29688 15.9844C4.16366 15.5925 1.92927 13.9675 0.59375 11.1094C0.272888 10.3115 0.0697634 9.48856 -0.015625 8.64062C-0.015625 8.20312 -0.015625 7.76562 -0.015625 7.32812C0.100402 6.12059 0.464984 4.99038 1.07812 3.9375C1.26829 3.90038 1.45579 3.8535 1.64062 3.79688C1.68229 3.81772 1.68229 3.83853 1.64062 3.85938C1.46804 4.00594 1.29096 4.14656 1.10938 4.28125C1.25002 4.35675 1.38543 4.44009 1.51562 4.53125C1.86979 4.55209 2.22396 4.55209 2.57812 4.53125C2.95833 4.46353 3.33853 4.39584 3.71875 4.32812C3.75334 4.33078 3.78459 4.34122 3.8125 4.35938C4.06506 4.79166 4.3255 5.21875 4.59375 5.64062C4.59478 6.10188 4.61559 6.56019 4.65625 7.01562C5.02603 7.51041 5.39584 8.00522 5.76562 8.5C5.81669 8.51544 5.86878 8.52063 5.92188 8.51562C5.91159 8.33731 5.92203 8.16025 5.95312 7.98438C6.10341 8.28922 6.25966 8.59131 6.42188 8.89062C6.8475 8.99444 7.27459 9.09338 7.70312 9.1875C7.92091 9.374 8.12925 9.57191 8.32812 9.78125C8.4825 9.83809 8.63875 9.89019 8.79688 9.9375C8.82588 9.94963 8.84672 9.97047 8.85938 10C8.68966 10.3582 8.52297 10.7176 8.35938 11.0781C8.54356 11.4569 8.73625 11.8319 8.9375 12.2031C9.05734 12.62 9.17712 13.0366 9.29688 13.4531C9.16206 13.9715 9.03706 14.4923 8.92188 15.0156C8.94944 15.3084 8.98069 15.6001 9.01562 15.8906C8.88041 15.9361 8.745 15.9673 8.60938 15.9844Z" fill="#6B6060"/>
</g>
<defs>
<clipPath id="clip0_215_4663">
<rect width="16" height="16" fill="white"/>
</clipPath>
</defs>
</svg>
